<?xml version="1.0" encoding="utf-8"?>
<!-- Generator: Adobe Illustrator 24.1.2, SVG Export Plug-In . SVG Version: 6.00 Build 0)  -->
<svg version="1.1" id="Capa_1" xmlns="http://www.w3.org/2000/svg" xmlns:xlink="http://www.w3.org/1999/xlink" x="0px" y="0px"
	 viewBox="0 0 600 184" style="enable-background:new 0 0 600 184;" xml:space="preserve">
<style type="text/css">
	.st0{fill:url(#SVGID_1_);}
	.st1{fill:url(#SVGID_2_);}
	.st2{fill:url(#SVGID_3_);}
	.st3{fill:url(#SVGID_4_);}
	.st4{fill:url(#SVGID_5_);}
	.st5{fill:url(#SVGID_6_);}
	.st6{fill:#FFFFFF;}
</style>
<g>
	<g>
		<g>
			<linearGradient id="SVGID_1_" gradientUnits="userSpaceOnUse" x1="366.9516" y1="-33.6876" x2="-129.3292" y2="199.1827">
				<stop  offset="0" style="stop-color:#E74325"/>
				<stop  offset="1" style="stop-color:#E51667"/>
			</linearGradient>
			<path class="st0" d="M132.69,155.51c-22.28-4.46-27.32-31.08-23.5-51.21c1.28-9.26,9.33-15.31,16.66-20.14
				c0.62-0.41,1.19-0.86,1.73-1.37l-3.23-45.87c-0.24-3.42-2.97-6.02-6.11-5.81l-22.81,1.61c-3.14,0.23-5.48,3.18-5.24,6.6
				l2.96,42.03c0.24,3.44-2.12,6.39-5.24,6.6l-44.69,3.15c-3.12,0.21-5.87-2.39-6.11-5.81l-2.96-42.03
				c-0.24-3.44-2.97-6.03-6.11-5.81L5.25,39.07c-3.14,0.21-5.48,3.17-5.24,6.6l9.26,131.68c0.24,3.42,2.97,6.03,6.11,5.81
				l22.81-1.61c3.14-0.23,5.48-3.18,5.24-6.6l-3.03-43.09c-0.24-3.42,2.12-6.38,5.24-6.6l44.69-3.14c3.12-0.23,5.87,2.37,6.11,5.81
				l3.03,43.09c0.24,3.42,2.97,6.02,6.11,5.81l22.81-1.61c3.14-0.23,5.48-3.18,5.24-6.6L132.69,155.51z"/>
			<linearGradient id="SVGID_2_" gradientUnits="userSpaceOnUse" x1="396.8055" y1="29.9354" x2="-99.4753" y2="262.8057">
				<stop  offset="0" style="stop-color:#E74325"/>
				<stop  offset="1" style="stop-color:#E51667"/>
			</linearGradient>
			<path class="st1" d="M230.4,182.94c-10.52,0-20.41-1.93-29.67-5.78c-9.26-3.86-17.26-9.21-23.99-16.06
				c-6.73-6.85-12.21-14.78-16.2-23.77c-4-9-5.89-18.85-5.89-29.34c0-10.28,2.1-19.92,6.1-29.13c4-9.21,9.47-17.13,16.2-23.99
				s14.73-12.21,23.99-16.06c9.26-3.85,19.15-5.78,29.67-5.78c10.52,0,20.41,1.93,29.67,5.78c9.26,3.86,17.26,9.21,23.99,16.06
				c6.73,6.85,12.21,14.78,16.2,23.99c4,9.21,6.1,18.85,6.1,29.13c0,10.49-1.89,20.13-5.89,29.13c-4,9-9.47,16.92-16.2,23.77
				c-6.73,6.85-14.73,12.21-23.99,16.06c-9.26,3.85-19.15,5.78-29.67,5.78L230.4,182.94z M245.13,144.38
				c4.63-2.14,8.63-4.93,12-8.57c3.37-3.64,6.1-7.92,8.21-12.85c2.1-4.93,3.16-10.07,3.16-15.42c0-5.35-1.05-10.49-3.16-15.42
				c-2.11-4.93-4.84-9.21-8.21-12.85c-3.37-3.64-7.37-6.43-12-8.57c-4.63-2.14-9.47-3.21-14.73-3.21c-5.26,0-10.1,1.07-14.73,3.21
				c-4.63,2.14-8.63,4.93-11.99,8.57c-3.37,3.64-6.1,7.92-8.21,12.85c-2.1,4.93-3.16,10.07-3.16,15.42c0,5.35,1.05,10.49,3.16,15.42
				s4.84,9.21,8.21,12.85c3.37,3.64,7.36,6.43,11.99,8.57c4.63,2.14,9.47,3.21,14.73,3.21C235.67,147.6,240.51,146.53,245.13,144.38
				z"/>
			<linearGradient id="SVGID_3_" gradientUnits="userSpaceOnUse" x1="418.5992" y1="76.3811" x2="-77.6816" y2="309.2513">
				<stop  offset="0" style="stop-color:#E74325"/>
				<stop  offset="1" style="stop-color:#E51667"/>
			</linearGradient>
			<path class="st2" d="M436.6,41.55l-110.35-10.4c-3.39-0.32-6.38,2.16-6.71,5.55l-1.14,12.19c-0.09,0.92,0.32,1.82,1.06,2.37
				c0.15,0.11,0.29,0.22,0.44,0.33c1.13,0.87,2.45,1.47,3.84,1.76c8.96,1.81,15.56,5.99,20.26,11.7c1.02,1.24,2.49,2.02,4.09,2.17
				l5.7,0.53c3.38,0.32,5.87,3.32,5.54,6.71l-9.25,99.46c-0.32,3.38,2.16,6.38,5.55,6.69l24.61,2.33c3.39,0.32,6.38-2.16,6.71-5.55
				l9.25-99.46c0.32-3.38,3.32-5.87,6.69-5.54l30.52,2.87c3.38,0.32,6.38-2.16,6.69-5.54l2.03-21.46
				C442.46,44.86,439.98,41.86,436.6,41.55z"/>
		</g>
		<g>
			<linearGradient id="SVGID_4_" gradientUnits="userSpaceOnUse" x1="386.4861" y1="7.9432" x2="-109.7948" y2="240.8135">
				<stop  offset="0" style="stop-color:#E74325"/>
				<stop  offset="1" style="stop-color:#E51667"/>
			</linearGradient>
			<path class="st3" d="M330.1,119.42c-0.01,0.02-0.01,0.02-0.01,0.03c0.02,0.16,0.01,0.3,0.01,0.46c0.01,0.05,0,0.11,0.01,0.16
				c-0.01,0.27-0.03,0.56-0.05,0.82c-0.06,0.55-0.17,1.09-0.31,1.6c-0.53,1.86-1.61,3.52-3.12,4.75c-0.39,0.33-0.82,0.63-1.28,0.89
				c-0.99,0.56-2.09,0.97-3.32,1.17c-1.3,0.21-2.63,0.13-3.89-0.2c-0.81-0.23-1.61-0.55-2.34-0.96c-0.92-0.53-1.74-1.21-2.44-2.03
				c-0.13-0.15-0.25-0.3-0.37-0.45c-0.02-0.03-0.04-0.06-0.06-0.09c-0.36-0.5-0.68-1.01-0.93-1.53c-0.6-1.24-0.9-2.53-0.95-3.81
				c-0.02-0.01,0-0.02,0-0.03c0.04-0.45,0.05-0.9,0.06-1.34c0.04-0.9,0.07-1.81,0.08-2.7c0.21-10.56-1.05-21.32-3.91-31.95
				c-0.47-1.85-1.01-3.67-1.59-5.49c-0.19-0.62-0.39-1.23-0.6-1.83c-0.34-1-0.69-1.99-1.06-2.97c-0.28-0.78-0.59-1.56-0.9-2.34
				c-0.16-0.44-0.34-0.87-0.52-1.3c-0.29-0.73-0.59-1.45-0.9-2.17c-0.3-0.73-0.53-1.49-0.66-2.31c-0.2-1.3-0.12-2.59,0.18-3.79
				c0-0.02,0-0.03,0.01-0.05c0.28-1.11,0.35-2.29,0.16-3.5c-0.01-0.06-0.02-0.11-0.04-0.17c0.01-0.03-0.01-0.08-0.02-0.11
				c-0.01-0.09-0.03-0.19-0.06-0.28c-0.02-0.14-0.06-0.26-0.09-0.38c-0.01-0.05-0.02-0.11-0.04-0.17c-0.01-0.09-0.04-0.18-0.07-0.26
				c-0.03-0.08-0.05-0.14-0.06-0.21c-0.03-0.06-0.05-0.12-0.08-0.18c0-0.03-0.01-0.06-0.03-0.08c-0.05-0.15-0.1-0.27-0.15-0.34
				c-0.05-0.15-0.13-0.3-0.2-0.45c-0.3-0.7-0.63-1.4-0.96-2.09c-0.28-0.56-0.56-1.14-0.83-1.7c-0.27-0.55-0.55-1.08-0.83-1.59
				c-1.5-2.84-3.17-5.55-4.98-8.14c-0.39-0.58-0.81-1.15-1.23-1.7c-1.36-1.84-2.79-3.61-4.29-5.3c-0.48-0.56-0.98-1.11-1.49-1.65
				c-0.5-0.54-1.01-1.07-1.53-1.59c-0.52-0.52-1.05-1.05-1.59-1.55c-0.52-0.51-1.06-1.01-1.61-1.5c-0.54-0.49-1.09-0.98-1.65-1.45
				c-0.55-0.47-1.11-0.94-1.69-1.41c-0.85-0.68-1.72-1.36-2.59-2c-0.34-0.25-0.66-0.5-1-0.74c-1.43-1.02-2.86-1.98-4.35-2.91
				c-0.37-0.23-0.74-0.46-1.1-0.67c-2.68-1.61-5.44-3.05-8.29-4.33c-0.46-0.22-0.92-0.43-1.38-0.62c-2.23-0.95-4.49-1.81-6.79-2.54
				c-1.15-0.38-2.3-0.73-3.48-1.06c-0.03-0.01-0.05-0.01-0.05-0.01c-2.14-0.59-4.31-1.09-6.5-1.49c-0.51-0.1-1.03-0.18-1.55-0.26
				c-0.51-0.1-1.03-0.18-1.55-0.24c-1.04-0.17-2.08-0.3-3.14-0.39c-4.7-0.52-9.48-0.59-14.29-0.18c-0.87,0.05-1.73,0.14-2.59,0.24
				c-0.49,0.04-0.97,0.1-1.44,0.17l-3.71,0.57c-0.47,0.07-0.94,0.16-1.42,0.26c-0.85,0.16-1.7,0.34-2.54,0.55
				c-4.72,1.05-9.25,2.54-13.59,4.44c-0.99,0.4-1.94,0.84-2.88,1.31c-0.48,0.22-0.95,0.45-1.4,0.69c-0.48,0.22-0.95,0.46-1.4,0.71
				c-1.97,1.03-3.9,2.15-5.76,3.36c0,0-0.02,0-0.03,0.02l-0.02,0c-1.03,0.67-2.02,1.34-3.01,2.05c-2.11,1.48-4.14,3.08-6.09,4.76
				c-1,0.85-1.96,1.73-2.9,2.65c-3.13,2.99-6.01,6.22-8.61,9.69c-0.25,0.32-0.5,0.66-0.74,1c-7.04,9.65-11.96,20.95-14.03,33.25
				c-0.14,0.75-0.25,1.5-0.36,2.25c-0.11,0.76-0.21,1.53-0.29,2.28c-0.03,0.13-0.04,0.28-0.05,0.4c0,0.02-0.01,0.05,0,0.08
				c-0.02,0.08-0.03,0.21-0.04,0.37c0,0.03-0.01,0.05,0,0.08c-0.01,0.06-0.01,0.13-0.02,0.19c0,0.08,0.01,0.14,0,0.22
				c0.02,0.32,0.03,0.69,0.08,1.12c0,0.03,0,0.08,0.02,0.11c-0.01,0.06,0,0.11,0.01,0.17c0.18,1.21,0.61,2.32,1.2,3.3
				c0.02,0.01,0.02,0.03,0.02,0.04c0.65,1.06,1.11,2.26,1.31,3.57c0.13,0.82,0.14,1.62,0.07,2.4c-0.09,0.78-0.16,1.55-0.22,2.34
				c-0.04,0.47-0.08,0.93-0.1,1.4c-0.06,0.84-0.13,1.67-0.16,2.5c-0.06,1.04-0.09,2.1-0.12,3.15c-0.01,0.64-0.03,1.28-0.02,1.93
				c-0.01,1.91,0.03,3.81,0.13,5.72c0.44,11,2.45,21.64,5.8,31.66c0.27,0.85,0.58,1.71,0.88,2.55c0.14,0.42,0.3,0.84,0.46,1.26
				c0,0.02,0.02,0.01,0,0.03c0.33,1.24,0.44,2.55,0.23,3.92c-0.09,0.57-0.22,1.15-0.43,1.73c0,0.02-0.01,0.02-0.01,0.03
				c-0.01,0.02-0.01,0.05-0.02,0.07c-0.07,0.18-0.14,0.35-0.22,0.54c-0.42,0.97-1,1.87-1.72,2.66c-0.29,0.31-0.59,0.6-0.92,0.87
				c-0.33,0.26-0.67,0.52-1.03,0.75c-1.1,0.71-2.36,1.19-3.7,1.36c-1.2,0.17-2.37,0.11-3.47-0.14c-0.51-0.11-1.01-0.27-1.49-0.47
				c-2.57-1.04-4.58-3.16-5.46-5.81c-0.01-0.05-0.02-0.11-0.04-0.15c-0.05-0.15-0.11-0.29-0.13-0.44c0-0.02,0-0.02-0.02-0.03
				c-5.22-17.34-7.82-35.83-7.39-54.93c0.03-1.24,0.09-2.46,0.14-3.69c0.02-0.21,0.01-0.43,0.03-0.64c0.01-0.13,0.02-0.27,0.03-0.4
				c0.25-1.88,1.05-3.61,2.27-5c0.99-1.14,1.93-2.33,2.63-3.69c1.68-3.39,3.27-7.73,5.77-16.28C150.41,39.9,167,20.13,188.78,9.21
				c0.63-0.32,1.28-0.64,1.94-0.95c0.78-0.37,1.57-0.72,2.38-1.06c0.19-0.09,0.38-0.19,0.59-0.27c0.39-0.17,0.78-0.33,1.18-0.47
				c0.34-0.15,0.69-0.3,1.05-0.43c0.35-0.13,0.69-0.26,1.04-0.4c0.31-0.13,0.62-0.24,0.93-0.35c0.63-0.22,1.28-0.45,1.91-0.67
				c0.03,0,0.06-0.03,0.09-0.03l0.05-0.01c0.77-0.26,1.54-0.51,2.33-0.74c1.03-0.32,2.08-0.65,3.13-0.92
				c0.62-0.17,1.25-0.33,1.88-0.48c0.58-0.14,1.17-0.27,1.75-0.39c0.06-0.01,0.11-0.03,0.17-0.04c0.89-0.2,1.78-0.38,2.68-0.55
				c0.88-0.17,1.76-0.32,2.65-0.45l0.29-0.05c0.88-0.14,1.77-0.25,2.66-0.36c0.91-0.11,1.81-0.2,2.72-0.27
				c0.09-0.01,0.17-0.01,0.27-0.02c0.56-0.05,1.13-0.09,1.71-0.13c0.63-0.05,1.27-0.08,1.92-0.1c0.74-0.03,1.47-0.03,2.22-0.05
				c1.11-0.01,2.25-0.03,3.37-0.01c0.1,0,0.18,0,0.27,0.01c0.5,0.02,1,0.02,1.52,0.04c0.5,0.04,0.99,0.05,1.51,0.09
				c0.19,0.02,0.37,0.02,0.56,0.03c0.18,0,0.37,0.02,0.56,0.04c0.37,0.02,0.74,0.06,1.11,0.1c0.43,0.01,0.85,0.05,1.27,0.09
				c0.21,0.02,0.44,0.04,0.65,0.08c0.87,0.09,1.73,0.18,2.59,0.3c0.71,0.1,1.43,0.21,2.13,0.33c24.05,3.92,45.79,17.84,59.65,38.58
				c2.14,3.22,3.89,5.71,5.39,7.75c0.2,0.29,0.41,0.57,0.62,0.84c0.42,0.54,0.81,1.05,1.19,1.52c0.14,0.19,0.28,0.35,0.41,0.52
				c0.26,0.34,0.53,0.67,0.8,0.97c0.13,0.15,0.25,0.31,0.39,0.46c0.23,0.27,0.46,0.53,0.69,0.78c0.27,0.31,0.53,0.59,0.8,0.86
				c0.02,0.03,0.06,0.06,0.08,0.08c1.07,1.09,2.33,1.95,3.61,2.74c1.58,0.97,2.86,2.38,3.66,4.1l0,0.02
				c0.07,0.12,0.12,0.24,0.15,0.36c0.08,0.19,0.14,0.41,0.22,0.6c0.43,1.16,0.83,2.3,1.23,3.48
				C326.87,82.88,329.9,101.31,330.1,119.42z"/>
			<linearGradient id="SVGID_5_" gradientUnits="userSpaceOnUse" x1="407.1789" y1="52.0428" x2="-89.1019" y2="284.913">
				<stop  offset="0" style="stop-color:#E74325"/>
				<stop  offset="1" style="stop-color:#E51667"/>
			</linearGradient>
			<path class="st4" d="M346.96,89.61c0.67,4.3,0.83,8.69,0.53,12.96c-0.37,5.28-3.16,10-7.41,12.73c-2.45,1.56-5.21,3.45-7.64,4.9
				c-0.04,0.02-0.09,0.06-0.13,0.08c0.01-0.05,0.01-0.11,0.01-0.16c0.01-0.06,0-0.21,0-0.21c0.01-0.14,0-0.29,0-0.43
				c0.01-0.03,0.01-0.06,0-0.08c-0.19-18.73-3.38-37.34-9.47-55.33c-0.41-1.21-0.81-2.37-1.26-3.59c0,0-0.14-0.41-0.19-0.51
				c-0.04-0.18-0.12-0.36-0.21-0.54c-0.02-0.01-0.02-0.03-0.02-0.04c-0.02-0.03-0.02-0.04-0.04-0.07L331.68,63
				c3.88,1.36,7.13,4.25,9.16,8.05C343.85,76.75,345.98,83.11,346.96,89.61z"/>
			<linearGradient id="SVGID_6_" gradientUnits="userSpaceOnUse" x1="383.7549" y1="2.1228" x2="-112.5259" y2="234.993">
				<stop  offset="0" style="stop-color:#E74325"/>
				<stop  offset="1" style="stop-color:#E51667"/>
			</linearGradient>
			<path class="st5" d="M130.48,88.61l-0.03,0.43c-0.01,0.13-0.06,1.18-0.06,1.18c-0.04,1.09-0.08,2.16-0.12,3.26
				c-0.42,18.98,2.09,37.7,7.5,55.63l0.01,0.08c0.04,0.14,0.09,0.26,0.14,0.41c0.01,0.06,0.02,0.12,0.05,0.2l0,0.02
				c-2.69-0.65-5.84-1.6-8.57-2.34c-4.86-1.34-8.95-5-10.87-9.94c-1.56-3.99-2.72-8.23-3.36-12.53c-1.01-6.49-0.87-13.2,0.3-19.54
				c0.8-4.24,3.04-7.96,6.34-10.42L130.48,88.61z"/>
		</g>
	</g>
	<g>
		<path class="st6" d="M427.1,132.92h-5.26l2.84-36.73h15.58c3.75,0,6.65,0.86,8.69,2.58c2.05,1.72,3.07,4.11,3.07,7.17
			c0,3.37-1.07,6.05-3.22,8.02c-2.15,1.98-5.43,2.97-9.83,2.97l2.27-0.77c1.69,0,3.04,0.4,4.08,1.19c1.03,0.79,1.84,2.18,2.42,4.18
			l3.51,11.4h-5.57l-3.77-12.23c-0.38-1.37-1.08-2.3-2.12-2.76c-1.03-0.46-2.3-0.7-3.82-0.7h-8.41l0.31-4.28h10.89
			c2.72,0,4.75-0.56,6.11-1.68c1.36-1.12,2.04-2.79,2.04-5.03c0-1.96-0.59-3.41-1.78-4.36c-1.19-0.95-2.97-1.42-5.34-1.42h-10.16
			L427.1,132.92z"/>
		<path class="st6" d="M459.19,132.92h-5.57l19.24-36.73h4.44l13.52,36.73h-5.26l-11.5-32.71h1.65L459.19,132.92z M461.41,123.84
			l2.27-4.23h19.09l1.55,4.23H461.41z"/>
		<path class="st6" d="M495.61,132.92l2.84-36.73h12.74c3.68,0,6.83,0.67,9.44,2.01c2.61,1.34,4.6,3.28,5.96,5.8
			c1.36,2.53,2.04,5.56,2.04,9.11c0,4.13-0.75,7.68-2.24,10.65c-1.5,2.98-3.66,5.24-6.5,6.81c-2.84,1.57-6.29,2.35-10.34,2.35
			H495.61z M501.29,128.49h7.84c4.71,0,8.24-1.32,10.58-3.95c2.34-2.63,3.51-6.46,3.51-11.48c0-4.06-1.05-7.15-3.15-9.26
			c-2.1-2.12-5.23-3.17-9.39-3.17h-7.12L501.29,128.49z"/>
		<path class="st6" d="M534.51,132.92l2.84-36.73h5.42l-2.89,36.73H534.51z"/>
		<path class="st6" d="M565.31,133.39c-3.47,0-6.46-0.7-8.95-2.09c-2.49-1.39-4.41-3.39-5.75-5.99c-1.34-2.6-2.01-5.7-2.01-9.31
			c0-4.09,0.71-7.66,2.14-10.71c1.43-3.04,3.45-5.4,6.06-7.07c2.61-1.67,5.69-2.5,9.23-2.5c3.44,0,6.41,0.7,8.9,2.09
			c2.49,1.39,4.42,3.39,5.78,5.98c1.36,2.6,2.04,5.7,2.04,9.31c0,4.13-0.72,7.7-2.17,10.73c-1.44,3.03-3.47,5.37-6.06,7.04
			C571.92,132.55,568.85,133.39,565.31,133.39z M565.31,129c2.44,0,4.57-0.64,6.37-1.91c1.81-1.27,3.19-3.1,4.15-5.47
			c0.96-2.37,1.44-5.21,1.44-8.51c0-4.16-0.97-7.37-2.92-9.62c-1.94-2.25-4.72-3.38-8.33-3.38c-2.51,0-4.66,0.65-6.45,1.93
			c-1.79,1.29-3.17,3.11-4.15,5.47c-0.98,2.36-1.47,5.2-1.47,8.54c0,4.13,0.98,7.32,2.94,9.57S561.67,129,565.31,129z"/>
	</g>
	<g>
		<path class="st6" d="M416.92,183.18l2.84-36.73h15.07c3.68,0,6.88,0.71,9.6,2.12c2.72,1.41,4.82,3.4,6.32,5.96
			c1.5,2.56,2.24,5.62,2.24,9.16c0,4.13-0.82,7.65-2.45,10.55c-1.63,2.91-3.99,5.13-7.07,6.66c-3.08,1.53-6.78,2.3-11.12,2.3H416.92
			z M427.19,175.44h4.28c4.02,0,7.02-0.95,8.98-2.84c1.96-1.89,2.94-4.88,2.94-8.98c0-3.06-0.85-5.4-2.55-7.02
			c-1.7-1.62-4.15-2.42-7.35-2.42h-4.59L427.19,175.44z"/>
		<path class="st6" d="M461.45,183.18h-9.85l20.02-36.73h7.74l14.24,36.73h-9.29l-10.27-28.94h2.06L461.45,183.18z M460.11,175.6
			l4.38-7.27h18.06l3.04,7.27H460.11z"/>
		<path class="st6" d="M495.76,183.18l2.89-36.73h7.07l16.66,22.75l-1.91,1.24l1.96-23.99h9.03l-2.89,36.73h-7.22l-16.51-22.65
			l1.86-1.34l-1.96,23.99H495.76z"/>
		<path class="st6" d="M553.75,183.64c-3.71,0-6.92-0.72-9.62-2.17c-2.7-1.44-4.77-3.49-6.22-6.14c-1.44-2.65-2.17-5.78-2.17-9.39
			c0-4.06,0.82-7.58,2.45-10.58c1.63-2.99,3.93-5.31,6.89-6.94c2.96-1.63,6.43-2.45,10.42-2.45c2.44,0,4.76,0.34,6.94,1.03
			c2.18,0.69,4.1,1.69,5.75,2.99l-3.51,6.86c-1.48-1.14-2.92-1.96-4.33-2.48s-2.87-0.77-4.39-0.77c-2.24,0-4.13,0.5-5.68,1.5
			c-1.55,1-2.73,2.42-3.53,4.26c-0.81,1.84-1.21,4.03-1.21,6.58c0,3.27,0.72,5.76,2.17,7.48c1.45,1.72,3.53,2.58,6.24,2.58
			c1.44,0,2.93-0.27,4.46-0.8c1.53-0.53,3.21-1.35,5.03-2.45l2.42,6.86c-1.24,1.24-2.97,2.22-5.21,2.94S556.12,183.64,553.75,183.64
			z"/>
		<path class="st6" d="M570.62,183.18l2.89-36.73h26.21l-0.62,7.43h-16.71l-1.75,21.88h16.72l-0.57,7.43H570.62z M580.32,168.22
			l0.57-7.43h16.66l-0.67,7.43H580.32z"/>
	</g>
</g>
</svg>
