<?xml version="1.0" encoding="utf-8"?>
<!-- Generator: Adobe Illustrator 24.1.2, SVG Export Plug-In . SVG Version: 6.00 Build 0)  -->
<svg version="1.1" id="Capa_1" xmlns="http://www.w3.org/2000/svg" xmlns:xlink="http://www.w3.org/1999/xlink" x="0px" y="0px"
	 viewBox="0 0 300 300" style="enable-background:new 0 0 300 300;" xml:space="preserve">
<style type="text/css">
	.st0{fill:url(#SVGID_1_);}
	.st1{fill-rule:evenodd;clip-rule:evenodd;fill:#FFFFFF;}
	.st2{fill:url(#SVGID_2_);}
	.st3{fill:url(#SVGID_3_);}
	.st4{fill-rule:evenodd;clip-rule:evenodd;fill:url(#SVGID_4_);}
</style>
<g>
	<g>
		<linearGradient id="SVGID_1_" gradientUnits="userSpaceOnUse" x1="41.9469" y1="150.1174" x2="256.561" y2="150.1174">
			<stop  offset="0" style="stop-color:#E74325"/>
			<stop  offset="1" style="stop-color:#E51667"/>
		</linearGradient>
		<path class="st0" d="M256.56,150.12c0,57.77-45.62,104.83-102.78,107.19h-0.24c-1.41,0.1-2.86,0.1-4.27,0.1
			c-6.59,0-13.09-0.57-19.35-1.72c-0.37-0.07-0.77-0.13-1.14-0.24c-49.46-9.55-86.83-53.09-86.83-105.34
			c0-59.25,48.04-107.29,107.32-107.29C208.52,42.83,256.56,90.87,256.56,150.12z"/>
		<path class="st1" d="M153.81,117.31c-0.13,5.18-0.2,17.09-0.2,17.09s13.32,0.03,19.14,0h4.58c-1.08,8.24-2.09,16.15-3.13,24.16
			h-20.42v98.74h-0.24c-1.41,0.1-2.86,0.1-4.27,0.1c-6.59,0-13.09-0.57-19.35-1.72c-0.37-0.07-0.77-0.13-1.14-0.24v-96.99h-20.49
			v-24.02h20.59v-1.82c0-4.84-0.1-9.66,0-14.5c0.1-3.06,0.24-6.22,0.77-9.25c1.28-7.33,4.64-13.52,10.8-17.97
			c5.35-3.84,11.51-5.42,17.97-5.55c4.27-0.1,8.51,0.13,12.75,0.3c2.32,0.1,4.64,0.44,6.83,0.67v21.5h-1.68
			c-4.17,0.03-8.28-0.1-12.41,0.03C158.22,108.1,154.01,110.25,153.81,117.31z"/>
	</g>
	<g>
		<g>
			<linearGradient id="SVGID_2_" gradientUnits="userSpaceOnUse" x1="138.7811" y1="243.7404" x2="290.9113" y2="243.7404">
				<stop  offset="0" style="stop-color:#E74325"/>
				<stop  offset="1" style="stop-color:#E51667"/>
			</linearGradient>
			<path class="st2" d="M149.52,300c-5.93,0-10.74-4.81-10.74-10.74c0-5.93,4.81-10.74,10.74-10.74c53.58,0,102.03-33.76,120.56-84
				c2.05-5.57,8.23-8.41,13.8-6.36c5.57,2.05,8.42,8.23,6.36,13.8c-10.5,28.48-29.2,52.85-54.05,70.49
				C210.77,290.47,180.8,300,149.52,300z"/>
		</g>
		<g>
			<linearGradient id="SVGID_3_" gradientUnits="userSpaceOnUse" x1="-0.4195" y1="138.1696" x2="299.469" y2="138.1696">
				<stop  offset="0" style="stop-color:#E74325"/>
				<stop  offset="1" style="stop-color:#E51667"/>
			</linearGradient>
			<path class="st3" d="M71.69,276.23c-2.07,0-4.16-0.6-6-1.84c-41.39-27.96-66.1-74.44-66.1-124.33
				c0-82.68,67.26-149.94,149.94-149.94s149.94,67.26,149.94,149.94c0,5.93-4.81,10.74-10.74,10.74s-10.74-4.81-10.74-10.74
				c0-70.83-57.63-128.46-128.46-128.46S21.07,79.22,21.07,150.06c0,42.74,21.17,82.56,56.64,106.52c4.92,3.32,6.21,10,2.89,14.92
				C78.52,274.57,75.13,276.23,71.69,276.23z"/>
		</g>
		<linearGradient id="SVGID_4_" gradientUnits="userSpaceOnUse" x1="98.142" y1="283.6509" x2="118.6951" y2="283.6509">
			<stop  offset="0" style="stop-color:#E74325"/>
			<stop  offset="1" style="stop-color:#E51667"/>
		</linearGradient>
		<circle class="st4" cx="108.42" cy="283.65" r="10.28"/>
	</g>
</g>
</svg>
