<?xml version="1.0" encoding="utf-8"?>
<!-- Generator: Adobe Illustrator 24.1.2, SVG Export Plug-In . SVG Version: 6.00 Build 0)  -->
<svg version="1.1" id="Capa_1" xmlns="http://www.w3.org/2000/svg" xmlns:xlink="http://www.w3.org/1999/xlink" x="0px" y="0px"
	 viewBox="0 0 300 300" style="enable-background:new 0 0 300 300;" xml:space="preserve">
<style type="text/css">
	.st0{fill:url(#SVGID_1_);}
	.st1{fill:url(#SVGID_2_);}
	.st2{fill-rule:evenodd;clip-rule:evenodd;fill:url(#SVGID_3_);}
	.st3{fill:url(#SVGID_4_);}
	.st4{fill:#FFFFFF;}
	.st5{fill:url(#SVGID_5_);}
	.st6{fill:url(#SVGID_6_);}
	.st7{fill-rule:evenodd;clip-rule:evenodd;fill:url(#SVGID_7_);}
	.st8{fill:url(#SVGID_8_);}
	.st9{fill:url(#SVGID_9_);}
	.st10{fill:url(#SVGID_10_);}
	.st11{fill-rule:evenodd;clip-rule:evenodd;fill:url(#SVGID_11_);}
	.st12{fill:url(#SVGID_12_);}
</style>
<g>
	<g>
		<g>
			
				<linearGradient id="SVGID_1_" gradientUnits="userSpaceOnUse" x1="4679.8779" y1="1279.6763" x2="4831.2466" y2="1279.6763" gradientTransform="matrix(1.240106e-03 1 -1 1.240106e-03 1329.7555 -4542.8423)">
				<stop  offset="0" style="stop-color:#E74325"/>
				<stop  offset="1" style="stop-color:#E51667"/>
			</linearGradient>
			<path class="st0" d="M101.34,289.93c-1.22,0-2.47-0.21-3.69-0.66c-28.35-10.42-52.62-28.98-70.2-53.7
				c-17.98-25.27-27.5-55.08-27.54-86.2c-0.01-5.9,4.77-10.7,10.68-10.7c0,0,0.01,0,0.01,0c5.9,0,10.68,4.78,10.69,10.68
				c0.07,53.31,33.72,101.47,83.73,119.85c5.54,2.04,8.38,8.18,6.35,13.72C109.79,287.25,105.7,289.93,101.34,289.93z"/>
		</g>
		<g>
			
				<linearGradient id="SVGID_2_" gradientUnits="userSpaceOnUse" x1="4541.3745" y1="1174.6342" x2="4839.7612" y2="1174.6342" gradientTransform="matrix(1.240106e-03 1 -1 1.240106e-03 1329.7555 -4542.8423)">
				<stop  offset="0" style="stop-color:#E74325"/>
				<stop  offset="1" style="stop-color:#E51667"/>
			</linearGradient>
			<path class="st1" d="M149.28,298.39c-5.9,0-10.68-4.78-10.69-10.68c-0.01-5.9,4.77-10.7,10.68-10.7
				c34.14-0.04,66.22-13.38,90.33-37.55c24.11-24.17,37.37-56.28,37.32-90.42c-0.04-34.14-13.38-66.22-37.55-90.33
				c-24.13-24.07-56.18-37.32-90.26-37.32c-0.06,0-0.11,0-0.16,0c-42.53,0.05-82.12,21.17-105.92,56.49
				c-3.3,4.9-9.94,6.19-14.84,2.89c-4.9-3.3-6.19-9.94-2.89-14.84C53.07,24.71,99.29,0.06,148.93,0c0.06,0,0.13,0,0.19,0
				c39.78,0,77.19,15.47,105.36,43.57c28.21,28.14,43.78,65.59,43.83,105.44c0.05,39.85-15.42,77.34-43.57,105.55
				c-28.14,28.21-65.59,43.78-105.44,43.83C149.29,298.39,149.29,298.39,149.28,298.39z"/>
		</g>
		
			<linearGradient id="SVGID_3_" gradientUnits="userSpaceOnUse" x1="4639.4424" y1="1319.3871" x2="4659.8926" y2="1319.3871" gradientTransform="matrix(1.240106e-03 1 -1 1.240106e-03 1329.7555 -4542.8423)">
			<stop  offset="0" style="stop-color:#E74325"/>
			<stop  offset="1" style="stop-color:#E51667"/>
		</linearGradient>
		<circle class="st2" cx="16.14" cy="108.46" r="10.23"/>
	</g>
	<g>
		<linearGradient id="SVGID_4_" gradientUnits="userSpaceOnUse" x1="39.7471" y1="149.1962" x2="257.5488" y2="149.1962">
			<stop  offset="0" style="stop-color:#E74325"/>
			<stop  offset="1" style="stop-color:#E51667"/>
		</linearGradient>
		<circle class="st3" cx="148.65" cy="149.2" r="108.9"/>
		<path class="st4" d="M208.82,119.56c-0.81-7.89-3.83-14.87-9.7-20.46c-6.17-5.89-13.71-8.49-21.98-8.93
			c-14.09-0.77-47.55-1.25-59.3,0.66c-13.42,2.19-22.23,10.02-25.94,23.28c-2.86,10.2-2.29,57.22-0.62,67.31
			c2.27,13.79,10.42,22.63,24.09,26.15c9.46,2.44,55.94,2.13,66.37,0.44c13.8-2.23,22.68-10.34,26.26-23.98
			C210.74,173.56,209.78,129.01,208.82,119.56z M197.78,179.47c-1.6,10.47-8.56,16.96-19.08,18.11c-9.67,1.06-52.86,1.64-61.83-0.87
			c-8.58-2.4-13.49-8.3-14.91-16.94c-1.36-8.25-1.7-49.47-0.02-60.51c1.58-10.38,8.53-16.86,19-18.03
			c10.62-1.19,48.84-1.32,59.02,0.24c10.45,1.6,16.93,8.57,18.08,19.12C199.1,130.44,199.4,168.9,197.78,179.47z M149.85,118.68
			c-16.98-0.01-30.75,13.75-30.76,30.73s13.75,30.75,30.73,30.76s30.75-13.75,30.76-30.73
			C180.59,132.47,166.83,118.69,149.85,118.68z M149.64,169.29c-10.98-0.1-19.8-9.08-19.7-20.06c0.1-10.98,9.08-19.8,20.06-19.7
			c10.98,0.1,19.8,9.08,19.7,20.06C169.6,160.57,160.62,169.39,149.64,169.29z M188.99,117.52c-0.01,3.97-3.24,7.19-7.22,7.18
			c-3.98-0.01-7.19-3.24-7.18-7.22c0.01-3.97,3.24-7.19,7.22-7.18C185.79,110.32,189,113.55,188.99,117.52z"/>
		<path class="st4" d="M208.82,119.56c-0.81-7.89-3.83-14.87-9.7-20.46c-6.17-5.89-13.71-8.49-21.98-8.93
			c-14.09-0.77-47.55-1.25-59.3,0.66c-13.42,2.19-22.23,10.02-25.94,23.28c-2.86,10.2-2.29,57.22-0.62,67.31
			c2.27,13.79,10.42,22.63,24.09,26.15c9.46,2.44,55.94,2.13,66.37,0.44c13.8-2.23,22.68-10.34,26.26-23.98
			C210.74,173.56,209.78,129.01,208.82,119.56z M197.78,179.47c-1.6,10.47-8.56,16.96-19.08,18.11c-9.67,1.06-52.86,1.64-61.83-0.87
			c-8.58-2.4-13.49-8.3-14.91-16.94c-1.36-8.25-1.7-49.47-0.02-60.51c1.58-10.38,8.53-16.86,19-18.03
			c10.62-1.19,48.84-1.32,59.02,0.24c10.45,1.6,16.93,8.57,18.08,19.12C199.1,130.44,199.4,168.9,197.78,179.47z M149.85,118.68
			c-16.98-0.01-30.75,13.75-30.76,30.73s13.75,30.75,30.73,30.76s30.75-13.75,30.76-30.73
			C180.59,132.47,166.83,118.69,149.85,118.68z M149.64,169.29c-10.98-0.1-19.8-9.08-19.7-20.06c0.1-10.98,9.08-19.8,20.06-19.7
			c10.98,0.1,19.8,9.08,19.7,20.06C169.6,160.57,160.62,169.39,149.64,169.29z M188.99,117.52c-0.01,3.97-3.24,7.19-7.22,7.18
			c-3.98-0.01-7.19-3.24-7.18-7.22c0.01-3.97,3.24-7.19,7.22-7.18C185.79,110.32,189,113.55,188.99,117.52z"/>
	</g>
</g>
<text transform="matrix(1 0 0 1 657.7559 15.5659)" class="st4" style="font-family:'Muli-LightItalic'; font-size:24.4743px;">@HotRadioDanceec</text>
<g>
	<g>
		<g>
			
				<linearGradient id="SVGID_5_" gradientUnits="userSpaceOnUse" x1="4549.5488" y1="415.3204" x2="4566.9238" y2="415.3204" gradientTransform="matrix(1.240106e-03 1 -1 1.240106e-03 1329.7555 -4542.8423)">
				<stop  offset="0" style="stop-color:#E74325"/>
				<stop  offset="1" style="stop-color:#E51667"/>
			</linearGradient>
			<path class="st5" d="M925.3,24.59c-0.14,0-0.28-0.02-0.42-0.08c-3.25-1.2-6.04-3.33-8.06-6.16c-2.06-2.9-3.16-6.32-3.16-9.89
				c0-0.68,0.55-1.23,1.23-1.23c0,0,0,0,0,0c0.68,0,1.23,0.55,1.23,1.23c0.01,6.12,3.87,11.65,9.61,13.76
				c0.64,0.23,0.96,0.94,0.73,1.57C926.27,24.28,925.8,24.59,925.3,24.59z"/>
		</g>
		<g>
			
				<linearGradient id="SVGID_6_" gradientUnits="userSpaceOnUse" x1="4533.6504" y1="403.2628" x2="4567.9014" y2="403.2628" gradientTransform="matrix(1.240106e-03 1 -1 1.240106e-03 1329.7555 -4542.8423)">
				<stop  offset="0" style="stop-color:#E74325"/>
				<stop  offset="1" style="stop-color:#E51667"/>
			</linearGradient>
			<path class="st6" d="M930.8,25.56c-0.68,0-1.23-0.55-1.23-1.23c0-0.68,0.55-1.23,1.23-1.23c3.92,0,7.6-1.54,10.37-4.31
				c2.77-2.77,4.29-6.46,4.28-10.38c0-3.92-1.54-7.6-4.31-10.37c-2.77-2.76-6.45-4.28-10.36-4.28c-0.01,0-0.01,0-0.02,0
				c-4.88,0.01-9.43,2.43-12.16,6.48c-0.38,0.56-1.14,0.71-1.7,0.33c-0.56-0.38-0.71-1.14-0.33-1.7c3.19-4.73,8.49-7.56,14.19-7.57
				c0.01,0,0.01,0,0.02,0c4.57,0,8.86,1.78,12.09,5c3.24,3.23,5.03,7.53,5.03,12.1c0.01,4.57-1.77,8.88-5,12.12
				C939.67,23.76,935.37,25.55,930.8,25.56C930.8,25.56,930.8,25.56,930.8,25.56z"/>
		</g>
		
			<linearGradient id="SVGID_7_" gradientUnits="userSpaceOnUse" x1="4544.9072" y1="419.8787" x2="4547.2544" y2="419.8787" gradientTransform="matrix(1.240106e-03 1 -1 1.240106e-03 1329.7555 -4542.8423)">
			<stop  offset="0" style="stop-color:#E74325"/>
			<stop  offset="1" style="stop-color:#E51667"/>
		</linearGradient>
		<circle class="st7" cx="915.51" cy="3.76" r="1.17"/>
	</g>
	<g>
		<linearGradient id="SVGID_8_" gradientUnits="userSpaceOnUse" x1="918.2251" y1="8.4319" x2="943.2261" y2="8.4319">
			<stop  offset="0" style="stop-color:#E74325"/>
			<stop  offset="1" style="stop-color:#E51667"/>
		</linearGradient>
		<circle class="st8" cx="930.73" cy="8.43" r="12.5"/>
		<path class="st4" d="M937.63,5.03c-0.09-0.91-0.44-1.71-1.11-2.35c-0.71-0.68-1.57-0.97-2.52-1.02c-1.62-0.09-5.46-0.14-6.81,0.08
			c-1.54,0.25-2.55,1.15-2.98,2.67c-0.33,1.17-0.26,6.57-0.07,7.73c0.26,1.58,1.2,2.6,2.77,3c1.09,0.28,6.42,0.24,7.62,0.05
			c1.58-0.26,2.6-1.19,3.01-2.75C937.85,11.23,937.74,6.11,937.63,5.03z M936.37,11.91c-0.18,1.2-0.98,1.95-2.19,2.08
			c-1.11,0.12-6.07,0.19-7.1-0.1c-0.98-0.28-1.55-0.95-1.71-1.94c-0.16-0.95-0.19-5.68,0-6.95c0.18-1.19,0.98-1.94,2.18-2.07
			c1.22-0.14,5.61-0.15,6.77,0.03c1.2,0.18,1.94,0.98,2.07,2.19C936.52,6.28,936.55,10.69,936.37,11.91z M930.86,4.93
			c-1.95,0-3.53,1.58-3.53,3.53c0,1.95,1.58,3.53,3.53,3.53c1.95,0,3.53-1.58,3.53-3.53C934.39,6.51,932.81,4.93,930.86,4.93z
			 M930.84,10.74c-1.26-0.01-2.27-1.04-2.26-2.3c0.01-1.26,1.04-2.27,2.3-2.26c1.26,0.01,2.27,1.04,2.26,2.3
			C933.13,9.74,932.1,10.75,930.84,10.74z M935.36,4.8c0,0.46-0.37,0.83-0.83,0.82c-0.46,0-0.83-0.37-0.82-0.83
			c0-0.46,0.37-0.83,0.83-0.82C934.99,3.97,935.36,4.34,935.36,4.8z"/>
		<path class="st4" d="M937.63,5.03c-0.09-0.91-0.44-1.71-1.11-2.35c-0.71-0.68-1.57-0.97-2.52-1.02c-1.62-0.09-5.46-0.14-6.81,0.08
			c-1.54,0.25-2.55,1.15-2.98,2.67c-0.33,1.17-0.26,6.57-0.07,7.73c0.26,1.58,1.2,2.6,2.77,3c1.09,0.28,6.42,0.24,7.62,0.05
			c1.58-0.26,2.6-1.19,3.01-2.75C937.85,11.23,937.74,6.11,937.63,5.03z M936.37,11.91c-0.18,1.2-0.98,1.95-2.19,2.08
			c-1.11,0.12-6.07,0.19-7.1-0.1c-0.98-0.28-1.55-0.95-1.71-1.94c-0.16-0.95-0.19-5.68,0-6.95c0.18-1.19,0.98-1.94,2.18-2.07
			c1.22-0.14,5.61-0.15,6.77,0.03c1.2,0.18,1.94,0.98,2.07,2.19C936.52,6.28,936.55,10.69,936.37,11.91z M930.86,4.93
			c-1.95,0-3.53,1.58-3.53,3.53c0,1.95,1.58,3.53,3.53,3.53c1.95,0,3.53-1.58,3.53-3.53C934.39,6.51,932.81,4.93,930.86,4.93z
			 M930.84,10.74c-1.26-0.01-2.27-1.04-2.26-2.3c0.01-1.26,1.04-2.27,2.3-2.26c1.26,0.01,2.27,1.04,2.26,2.3
			C933.13,9.74,932.1,10.75,930.84,10.74z M935.36,4.8c0,0.46-0.37,0.83-0.83,0.82c-0.46,0-0.83-0.37-0.82-0.83
			c0-0.46,0.37-0.83,0.83-0.82C934.99,3.97,935.36,4.34,935.36,4.8z"/>
	</g>
</g>
<g>
	<g>
		<g>
			
				<linearGradient id="SVGID_9_" gradientUnits="userSpaceOnUse" x1="4549.8452" y1="176.0631" x2="4567.2207" y2="176.0631" gradientTransform="matrix(1.240106e-03 1 -1 1.240106e-03 1329.7555 -4542.8423)">
				<stop  offset="0" style="stop-color:#E74325"/>
				<stop  offset="1" style="stop-color:#E51667"/>
			</linearGradient>
			<path class="st9" d="M1164.55,24.59c-0.14,0-0.28-0.02-0.42-0.08c-3.25-1.2-6.04-3.33-8.06-6.16c-2.06-2.9-3.16-6.32-3.16-9.89
				c0-0.68,0.55-1.23,1.23-1.23c0,0,0,0,0,0c0.68,0,1.23,0.55,1.23,1.23c0.01,6.12,3.87,11.65,9.61,13.76
				c0.64,0.23,0.96,0.94,0.73,1.57C1165.52,24.28,1165.05,24.59,1164.55,24.59z"/>
		</g>
		<g>
			
				<linearGradient id="SVGID_10_" gradientUnits="userSpaceOnUse" x1="4533.9468" y1="164.0056" x2="4568.1982" y2="164.0056" gradientTransform="matrix(1.240106e-03 1 -1 1.240106e-03 1329.7555 -4542.8423)">
				<stop  offset="0" style="stop-color:#E74325"/>
				<stop  offset="1" style="stop-color:#E51667"/>
			</linearGradient>
			<path class="st10" d="M1170.06,25.56c-0.68,0-1.23-0.55-1.23-1.23c0-0.68,0.55-1.23,1.23-1.23c3.92,0,7.6-1.54,10.37-4.31
				c2.77-2.77,4.29-6.46,4.28-10.38c0-3.92-1.54-7.6-4.31-10.37c-2.77-2.76-6.45-4.28-10.36-4.28c-0.01,0-0.01,0-0.02,0
				c-4.88,0.01-9.43,2.43-12.16,6.48c-0.38,0.56-1.14,0.71-1.7,0.33c-0.56-0.38-0.71-1.14-0.33-1.7c3.19-4.73,8.49-7.56,14.19-7.57
				c0.01,0,0.01,0,0.02,0c4.57,0,8.86,1.78,12.09,5c3.24,3.23,5.03,7.53,5.03,12.1c0.01,4.57-1.77,8.88-5,12.12
				S1174.63,25.55,1170.06,25.56C1170.06,25.56,1170.06,25.56,1170.06,25.56z"/>
		</g>
		
			<linearGradient id="SVGID_11_" gradientUnits="userSpaceOnUse" x1="4545.2036" y1="180.6215" x2="4547.5513" y2="180.6215" gradientTransform="matrix(1.240106e-03 1 -1 1.240106e-03 1329.7555 -4542.8423)">
			<stop  offset="0" style="stop-color:#E74325"/>
			<stop  offset="1" style="stop-color:#E51667"/>
		</linearGradient>
		<circle class="st11" cx="1154.77" cy="3.76" r="1.17"/>
	</g>
	<g>
		<linearGradient id="SVGID_12_" gradientUnits="userSpaceOnUse" x1="1157.4825" y1="8.4319" x2="1182.4835" y2="8.4319">
			<stop  offset="0" style="stop-color:#E74325"/>
			<stop  offset="1" style="stop-color:#E51667"/>
		</linearGradient>
		<circle class="st12" cx="1169.98" cy="8.43" r="12.5"/>
		<path id="XMLID_1425_" class="st4" d="M1175.34,13.13c-0.21,0.31-0.57,0.42-0.89,0.21c-2.46-1.52-5.54-1.83-9.2-0.99
			c-0.37,0.1-0.68-0.16-0.78-0.47c-0.1-0.37,0.16-0.68,0.47-0.78c3.97-0.89,7.42-0.52,10.14,1.15
			C1175.45,12.4,1175.5,12.82,1175.34,13.13z M1176.6,10.25c-0.26,0.37-0.73,0.52-1.1,0.26c-2.82-1.73-7.11-2.25-10.4-1.2
			c-0.42,0.1-0.89-0.1-0.99-0.52c-0.1-0.42,0.1-0.89,0.52-0.99c3.82-1.15,8.52-0.58,11.76,1.41
			C1176.7,9.37,1176.86,9.89,1176.6,10.25z M1176.7,7.33c-3.35-1.99-8.94-2.2-12.13-1.2c-0.52,0.16-1.05-0.16-1.2-0.63
			c-0.16-0.52,0.16-1.05,0.63-1.2c3.71-1.1,9.83-0.89,13.7,1.41c0.47,0.26,0.63,0.89,0.37,1.36
			C1177.8,7.43,1177.17,7.59,1176.7,7.33z"/>
	</g>
</g>
<g>
	<text transform="matrix(1 0 0 1 961.4902 15.5659)" class="st4" style="font-family:'Muli-LightItalic'; font-size:24.4743px;">09 8 856 6210</text>
</g>
<g>
	
		<text transform="matrix(1 0 0 1 1202.5498 21.1714)" class="st4" style="font-family:'Muli-SemiBoldItalic'; font-size:21.9674px;">Spotify</text>
</g>
<g>
	<text transform="matrix(1 0 0 1 1202.5498 -0.4116)" class="st4" style="font-family:'Muli-LightItalic'; font-size:9.7123px;">síguenos en</text>
</g>
<g>
	<g>
		<path class="st4" d="M571.32-10.26l-2.89-2.89c-1.03-1.03-2.78-0.62-3.2,0.72c-0.31,0.93-1.34,1.44-2.27,1.24
			c-2.06-0.52-4.85-3.2-5.36-5.36c-0.31-0.93,0.31-1.96,1.24-2.27c1.34-0.41,1.75-2.17,0.72-3.2l-2.89-2.89
			c-0.83-0.72-2.06-0.72-2.78,0l-1.96,1.96c-1.96,2.06,0.21,7.53,5.05,12.38s10.31,7.12,12.38,5.05l1.96-1.96
			C572.04-8.3,572.04-9.54,571.32-10.26z"/>
	</g>
</g>
</svg>
