<?xml version="1.0" encoding="utf-8"?>
<!-- Generator: Adobe Illustrator 24.1.2, SVG Export Plug-In . SVG Version: 6.00 Build 0)  -->
<svg version="1.1" id="Capa_1" xmlns="http://www.w3.org/2000/svg" xmlns:xlink="http://www.w3.org/1999/xlink" x="0px" y="0px"
	 viewBox="0 0 141 40" style="enable-background:new 0 0 141 40;" xml:space="preserve">
<style type="text/css">
	.st0{fill:url(#SVGID_1_);}
	.st1{fill:url(#SVGID_2_);}
	.st2{fill-rule:evenodd;clip-rule:evenodd;fill:url(#SVGID_3_);}
	.st3{fill:url(#SVGID_4_);}
	.st4{fill:#FFFFFF;}
	.st5{enable-background:new    ;}
</style>
<g>
	<g>
		<g>
			
				<linearGradient id="SVGID_1_" gradientUnits="userSpaceOnUse" x1="5061.0913" y1="-511.5035" x2="5081.3872" y2="-511.5035" gradientTransform="matrix(1.240106e-03 1 1 -1.240106e-03 512.6902 -5042.6079)">
				<stop  offset="0" style="stop-color:#E74325"/>
				<stop  offset="1" style="stop-color:#E51667"/>
			</linearGradient>
			<path class="st0" d="M13.6,39.4c-0.2,0-0.3,0-0.5-0.1c-3.8-1.4-7.1-3.9-9.4-7.2C1.3,28.7,0,24.7,0,20.6c0-0.8,0.6-1.4,1.4-1.4
				l0,0c0.8,0,1.4,0.6,1.4,1.4c0,7.1,4.5,13.6,11.2,16.1c0.7,0.3,1.1,1.1,0.9,1.8C14.7,39.1,14.2,39.4,13.6,39.4z"/>
		</g>
		<g>
			
				<linearGradient id="SVGID_2_" gradientUnits="userSpaceOnUse" x1="5042.5308" y1="-497.3788" x2="5082.5308" y2="-497.3788" gradientTransform="matrix(1.240106e-03 1 1 -1.240106e-03 512.6902 -5042.6079)">
				<stop  offset="0" style="stop-color:#E74325"/>
				<stop  offset="1" style="stop-color:#E51667"/>
			</linearGradient>
			<path class="st1" d="M20,40.5c-0.8,0-1.4-0.6-1.4-1.4c0-0.8,0.6-1.4,1.4-1.4c4.6,0,8.9-1.8,12.1-5s5-7.5,5-12.1s-1.8-8.9-5-12.1
				s-7.5-5-12.1-5l0,0C14.3,3.4,9,6.2,5.8,11c-0.4,0.7-1.3,0.8-2,0.4C3.1,11,3,10.1,3.4,9.4C7.1,3.9,13.3,0.5,20,0.5l0,0
				c5.3,0,10.4,2.1,14.1,5.8c3.8,3.8,5.9,8.8,5.9,14.1s-2.1,10.4-5.8,14.1C30.4,38.5,25.4,40.5,20,40.5L20,40.5z"/>
		</g>
		
			<linearGradient id="SVGID_3_" gradientUnits="userSpaceOnUse" x1="5055.6753" y1="-516.7615" x2="5058.417" y2="-516.7615" gradientTransform="matrix(1.240106e-03 1 1 -1.240106e-03 512.6902 -5042.6079)">
			<stop  offset="0" style="stop-color:#E74325"/>
			<stop  offset="1" style="stop-color:#E51667"/>
		</linearGradient>
		<circle class="st2" cx="2.2" cy="15.1" r="1.4"/>
	</g>
	<g>
		
			<linearGradient id="SVGID_4_" gradientUnits="userSpaceOnUse" x1="5.3307" y1="-476.5" x2="34.5307" y2="-476.5" gradientTransform="matrix(1 0 0 -1 0 -456)">
			<stop  offset="0" style="stop-color:#E74325"/>
			<stop  offset="1" style="stop-color:#E51667"/>
		</linearGradient>
		<circle class="st3" cx="19.9" cy="20.5" r="14.6"/>
		<path id="XMLID_1425_" class="st4" d="M26.2,26c-0.2,0.4-0.7,0.5-1,0.2c-2.9-1.8-6.5-2.1-10.7-1.2c-0.4,0.1-0.8-0.2-0.9-0.5
			c-0.1-0.4,0.2-0.8,0.5-0.9c4.6-1,8.7-0.6,11.9,1.3C26.3,25.2,26.4,25.7,26.2,26z M27.7,22.7c-0.3,0.4-0.9,0.6-1.3,0.3
			c-3.3-2-8.3-2.6-12.1-1.4c-0.5,0.1-1-0.1-1.2-0.6c-0.1-0.5,0.1-1,0.6-1.2c4.5-1.3,10-0.7,13.7,1.6C27.8,21.6,28,22.2,27.7,22.7z
			 M27.8,19.2c-3.9-2.3-10.4-2.6-14.2-1.4c-0.6,0.2-1.2-0.2-1.4-0.7c-0.2-0.6,0.2-1.2,0.7-1.4c4.3-1.3,11.5-1,16,1.6
			c0.5,0.3,0.7,1,0.4,1.6C29.1,19.4,28.3,19.6,27.8,19.2z"/>
	</g>
</g>
<g>
	<g>
		<g class="st5">
			<path class="st4" d="M63.2,34.4c-1.4,0-2.7-0.2-3.8-0.5c-1.1-0.4-2.2-0.9-3.1-1.6l1.1-1.9c0.9,0.7,1.8,1.2,2.8,1.5
				c1,0.3,2,0.5,3.1,0.5c1.4,0,2.4-0.2,3.1-0.7c0.7-0.5,1.1-1.2,1.1-2.1c0-0.6-0.2-1-0.6-1.4c-0.4-0.4-0.8-0.6-1.4-0.9
				c-0.6-0.2-1.2-0.5-2-0.7c-0.7-0.2-1.4-0.4-2.1-0.7c-0.7-0.2-1.4-0.6-2-0.9c-0.6-0.4-1.1-0.9-1.4-1.5c-0.4-0.6-0.6-1.3-0.6-2.2
				c0-1.1,0.3-2,0.9-2.7c0.6-0.8,1.4-1.4,2.4-1.8c1-0.4,2.2-0.6,3.6-0.6c1.3,0,2.5,0.2,3.6,0.6c1.1,0.4,2,0.9,2.8,1.6l-1.1,1.9
				c-0.8-0.7-1.6-1.1-2.5-1.5s-1.8-0.5-2.8-0.5c-1.4,0-2.4,0.3-3.1,0.8c-0.7,0.5-1.1,1.2-1.1,2.1c0,0.6,0.2,1.1,0.5,1.5
				c0.4,0.4,0.8,0.7,1.4,1s1.3,0.5,2,0.7c0.7,0.2,1.4,0.4,2.1,0.7c0.7,0.2,1.4,0.5,2,0.9c0.6,0.4,1.1,0.8,1.4,1.4
				c0.4,0.6,0.5,1.3,0.5,2.1c0,1.1-0.3,2-0.8,2.7c-0.6,0.8-1.4,1.4-2.4,1.8C65.9,34.2,64.6,34.4,63.2,34.4z"/>
			<path class="st4" d="M72.2,39.6l1.2-14.5c0.1-1.2,0.1-2.4,0.1-3.6h2.4l0.1,2.6h-0.2c0.2-0.6,0.5-1.1,1-1.5c0.4-0.4,1-0.8,1.6-1
				c0.6-0.2,1.2-0.3,1.9-0.3c1.1,0,2,0.2,2.8,0.7c0.8,0.5,1.4,1.2,1.9,2.1c0.5,0.9,0.7,2,0.7,3.2c0,1.4-0.3,2.6-0.8,3.7
				s-1.2,1.9-2.1,2.5s-1.9,0.9-3.1,0.9c-1.1,0-2-0.3-2.8-0.8c-0.8-0.5-1.3-1.2-1.6-2.2l0.3-0.5l-0.7,8.7H72.2z M79.2,32.4
				c1.2,0,2.1-0.4,2.7-1.3c0.7-0.9,1-2.1,1-3.6c0-1.3-0.3-2.3-0.9-3.1c-0.6-0.7-1.5-1.1-2.6-1.1c-1.2,0-2.1,0.4-2.7,1.3
				c-0.7,0.9-1,2.1-1,3.6c0,1.4,0.3,2.4,0.9,3.1C77.2,32,78.1,32.4,79.2,32.4z"/>
			<path class="st4" d="M93.8,34.4c-1.2,0-2.3-0.3-3.2-0.8c-0.9-0.5-1.6-1.2-2.1-2.1c-0.5-0.9-0.7-2-0.7-3.3c0-1.4,0.3-2.7,0.8-3.7
				c0.5-1,1.3-1.9,2.2-2.4c1-0.6,2.1-0.9,3.3-0.9c1.2,0,2.3,0.3,3.2,0.8c0.9,0.5,1.6,1.2,2.1,2.1c0.5,0.9,0.7,2,0.7,3.2
				c0,1.4-0.3,2.7-0.8,3.7S98,33,97.1,33.5C96.1,34.1,95,34.4,93.8,34.4z M93.8,32.4c0.8,0,1.5-0.2,2-0.6c0.6-0.4,1-1,1.3-1.8
				c0.3-0.8,0.4-1.6,0.4-2.6c0-1.3-0.3-2.3-0.9-3c-0.6-0.7-1.5-1.1-2.6-1.1c-0.8,0-1.5,0.2-2.1,0.6c-0.6,0.4-1,1-1.3,1.8
				c-0.3,0.8-0.4,1.6-0.4,2.6c0,1.3,0.3,2.4,0.9,3C91.8,32,92.6,32.4,93.8,32.4z"/>
			<path class="st4" d="M101.6,23.5l0.2-2h8.5l-0.2,2H101.6z M109.4,32l-0.2,2.1c-0.3,0.1-0.6,0.2-0.9,0.2c-0.3,0-0.6,0.1-1,0.1
				c-1.3,0-2.3-0.4-2.9-1.1c-0.7-0.7-1-1.8-0.9-3.2l0.9-11.7l2.6-0.9l-1,12.3c0,0.6,0,1.1,0.2,1.5c0.2,0.4,0.4,0.6,0.7,0.7
				c0.3,0.1,0.7,0.2,1.1,0.2c0.2,0,0.5,0,0.7,0C108.9,32.2,109.1,32.1,109.4,32z"/>
			<path class="st4" d="M111.6,34.2l1-12.6h2.5l-1,12.6H111.6z M112.8,16h2.9l-0.2,2.7h-3L112.8,16z"/>
			<path class="st4" d="M116.9,23.5l0.2-2h8.5l-0.2,2H116.9z M125.6,17.9c-0.4-0.1-0.8-0.2-1.2-0.2c-0.4,0-0.7,0.1-1.1,0.2
				c-0.3,0.1-0.6,0.4-0.8,0.7s-0.3,0.8-0.4,1.5l-1.1,14.1h-2.5l1.1-14.3c0.1-1.4,0.6-2.5,1.3-3.2s1.8-1.1,3-1.1c0.3,0,0.6,0,0.9,0.1
				c0.3,0,0.6,0.1,0.9,0.2L125.6,17.9z"/>
			<path class="st4" d="M126.1,39.9l-0.4-2c0.8-0.2,1.5-0.4,2-0.6c0.5-0.3,1-0.6,1.4-0.9c0.4-0.4,0.7-0.8,1-1.4l0.9-1.6l0.8-1.2
				l5.2-10.6h2.6l-7,13.6c-0.6,1.1-1.1,1.9-1.8,2.5c-0.6,0.6-1.3,1.1-2.1,1.4C127.9,39.5,127,39.7,126.1,39.9z M131,34.9l-4.7-13.4
				h2.6l3.6,10.6L131,34.9z"/>
		</g>
	</g>
	<g>
		<g class="st5">
			<path class="st4" d="M58,9.6c-0.4,0-0.8-0.1-1.2-0.2c-0.4-0.1-0.7-0.3-1-0.5l0.3-0.5c0.3,0.2,0.6,0.4,0.9,0.5C57.3,9,57.7,9,58,9
				c0.5,0,0.9-0.1,1.1-0.2c0.3-0.2,0.4-0.4,0.4-0.7c0-0.2-0.1-0.4-0.2-0.5s-0.4-0.2-0.6-0.3c-0.2-0.1-0.5-0.2-0.8-0.2
				c-0.3-0.1-0.5-0.2-0.8-0.3c-0.2-0.1-0.4-0.3-0.6-0.5c-0.2-0.2-0.2-0.5-0.2-0.8c0-0.3,0.1-0.6,0.3-0.9C56.8,4.4,57,4.2,57.3,4
				c0.3-0.1,0.7-0.2,1.1-0.2c0.4,0,0.7,0.1,1.1,0.2c0.3,0.1,0.6,0.3,0.8,0.5l-0.3,0.5c-0.5-0.5-1-0.7-1.6-0.7
				c-0.5,0-0.8,0.1-1.1,0.3C57.1,4.9,57,5.1,57,5.4c0,0.2,0.1,0.4,0.2,0.5c0.2,0.1,0.3,0.2,0.6,0.3c0.2,0.1,0.5,0.2,0.8,0.2
				c0.3,0.1,0.5,0.2,0.8,0.3c0.2,0.1,0.4,0.3,0.6,0.5c0.2,0.2,0.2,0.5,0.2,0.8c0,0.5-0.2,0.9-0.6,1.1C59.2,9.5,58.7,9.6,58,9.6z"/>
			<path class="st4" d="M61.6,9.5L62.1,4h0.7l-0.4,5.6H61.6z M62.7,3.3h-0.5L63.5,1h0.9L62.7,3.3z"/>
			<path class="st4" d="M64.4,10.8c0.3,0.2,0.7,0.4,1,0.5c0.3,0.1,0.6,0.1,1,0.1c0.6,0,1-0.2,1.3-0.5c0.3-0.3,0.5-0.8,0.5-1.4
				L68.4,8l0.1-0.1c-0.1,0.3-0.2,0.6-0.4,0.8c-0.2,0.2-0.4,0.4-0.7,0.5c-0.3,0.1-0.6,0.2-0.9,0.2c-0.5,0-0.9-0.1-1.3-0.3
				s-0.6-0.5-0.8-0.9C64.1,7.8,64,7.3,64,6.8c0-0.6,0.1-1.1,0.3-1.5c0.2-0.4,0.5-0.8,0.9-1c0.4-0.2,0.8-0.4,1.4-0.4s1,0.1,1.4,0.4
				s0.6,0.6,0.7,1.1l-0.1-0.2L68.7,4h0.7l-0.4,5.6c-0.1,0.8-0.3,1.4-0.7,1.8c-0.4,0.4-1,0.6-1.8,0.6c-0.8,0-1.5-0.2-2.2-0.6
				L64.4,10.8z M66.5,8.8c0.6,0,1.1-0.2,1.4-0.6c0.3-0.4,0.5-1,0.5-1.8c0-0.6-0.2-1.1-0.5-1.4s-0.8-0.5-1.4-0.5
				c-0.6,0-1.1,0.2-1.4,0.6c-0.3,0.4-0.5,1-0.5,1.7c0,0.6,0.2,1.1,0.5,1.4C65.5,8.6,65.9,8.8,66.5,8.8z"/>
			<path class="st4" d="M72.8,9.6c-0.6,0-1.1-0.2-1.5-0.5c-0.3-0.4-0.5-0.9-0.4-1.6L71.2,4h0.7l-0.3,3.4c0,0.6,0,1,0.3,1.2
				C72,8.9,72.4,9,72.9,9c0.5,0,1-0.2,1.3-0.5c0.3-0.3,0.5-0.8,0.6-1.4L75,4h0.7l-0.4,5.6h-0.7l0.1-1.2l0.1-0.1
				c-0.2,0.5-0.4,0.8-0.8,1S73.2,9.6,72.8,9.6z"/>
			<path class="st4" d="M81.6,8.9c-0.2,0.2-0.6,0.4-0.9,0.5s-0.8,0.2-1.2,0.2c-0.5,0-1-0.1-1.4-0.3c-0.4-0.2-0.7-0.5-0.9-0.9
				s-0.3-0.9-0.3-1.4c0-0.6,0.1-1.2,0.3-1.6c0.2-0.5,0.5-0.8,0.9-1.1c0.4-0.3,0.9-0.4,1.4-0.4c0.5,0,0.9,0.1,1.3,0.3
				c0.4,0.2,0.6,0.5,0.8,0.9c0.2,0.4,0.2,0.9,0.1,1.6h-4.3l0-0.5h4l-0.3,0.3c0.1-0.7,0-1.2-0.3-1.5c-0.3-0.3-0.7-0.5-1.2-0.5
				c-0.7,0-1.2,0.2-1.5,0.7c-0.4,0.5-0.5,1.1-0.5,1.9c0,0.6,0.2,1.1,0.5,1.5S78.9,9,79.5,9c0.3,0,0.7-0.1,1-0.2
				c0.3-0.1,0.6-0.3,0.9-0.5L81.6,8.9z"/>
			<path class="st4" d="M83.1,9.5l0.3-4c0-0.5,0.1-1,0-1.5H84l0,1.2l-0.1,0.1c0.2-0.5,0.4-0.8,0.8-1s0.8-0.4,1.3-0.4
				c0.7,0,1.2,0.2,1.5,0.5C87.8,4.8,88,5.3,87.9,6l-0.3,3.5H87l0.3-3.5c0-0.6-0.1-1-0.3-1.2c-0.2-0.3-0.6-0.4-1.1-0.4
				c-0.6,0-1,0.2-1.4,0.5C84.2,5.3,84,5.7,84,6.3l-0.3,3.2H83.1z"/>
			<path class="st4" d="M91.8,9.6c-0.5,0-0.9-0.1-1.3-0.3c-0.4-0.2-0.7-0.5-0.9-0.9c-0.2-0.4-0.3-0.9-0.3-1.4c0-0.6,0.1-1.2,0.3-1.6
				s0.5-0.8,0.9-1.1C91,4,91.4,3.9,92,3.9c0.5,0,0.9,0.1,1.3,0.3c0.4,0.2,0.7,0.5,0.9,0.9c0.2,0.4,0.3,0.9,0.3,1.4
				c0,0.6-0.1,1.2-0.3,1.6S93.6,9,93.2,9.2S92.3,9.6,91.8,9.6z M91.8,9c0.4,0,0.7-0.1,1-0.3c0.3-0.2,0.5-0.5,0.7-0.9
				s0.2-0.8,0.2-1.4c0-0.7-0.2-1.2-0.5-1.5c-0.3-0.4-0.8-0.5-1.3-0.5c-0.4,0-0.7,0.1-1,0.3c-0.3,0.2-0.5,0.5-0.7,0.9S90,6.5,90,7
				c0,0.7,0.2,1.2,0.5,1.5C90.8,8.9,91.3,9,91.8,9z"/>
			<path class="st4" d="M97.6,9.6c-0.4,0-0.8-0.1-1.2-0.2c-0.4-0.1-0.7-0.3-1-0.5l0.3-0.5c0.3,0.2,0.6,0.4,0.9,0.5
				C96.9,9,97.2,9,97.6,9c0.5,0,0.9-0.1,1.1-0.2c0.3-0.2,0.4-0.4,0.4-0.7c0-0.2-0.1-0.4-0.2-0.5s-0.4-0.2-0.6-0.3
				C98,7.1,97.7,7.1,97.5,7c-0.3-0.1-0.5-0.2-0.8-0.3c-0.2-0.1-0.4-0.3-0.6-0.5C96,6,95.9,5.8,95.9,5.5c0-0.3,0.1-0.6,0.3-0.9
				s0.4-0.4,0.7-0.6c0.3-0.1,0.7-0.2,1.1-0.2c0.4,0,0.7,0.1,1.1,0.2c0.3,0.1,0.6,0.3,0.8,0.5l-0.3,0.5c-0.5-0.5-1-0.7-1.6-0.7
				c-0.5,0-0.8,0.1-1.1,0.3c-0.3,0.2-0.4,0.4-0.4,0.8c0,0.2,0.1,0.4,0.2,0.5c0.2,0.1,0.3,0.2,0.6,0.3c0.2,0.1,0.5,0.2,0.8,0.2
				c0.3,0.1,0.5,0.2,0.8,0.3c0.2,0.1,0.4,0.3,0.6,0.5c0.2,0.2,0.2,0.5,0.2,0.8c0,0.5-0.2,0.9-0.6,1.1S98.2,9.6,97.6,9.6z"/>
			<path class="st4" d="M108.6,8.9c-0.2,0.2-0.6,0.4-0.9,0.5s-0.8,0.2-1.2,0.2c-0.5,0-1-0.1-1.4-0.3c-0.4-0.2-0.7-0.5-0.9-0.9
				s-0.3-0.9-0.3-1.4c0-0.6,0.1-1.2,0.3-1.6c0.2-0.5,0.5-0.8,0.9-1.1c0.4-0.3,0.9-0.4,1.4-0.4c0.5,0,0.9,0.1,1.3,0.3
				c0.4,0.2,0.6,0.5,0.8,0.9c0.2,0.4,0.2,0.9,0.1,1.6h-4.3l0-0.5h4l-0.3,0.3c0.1-0.7,0-1.2-0.3-1.5c-0.3-0.3-0.7-0.5-1.2-0.5
				c-0.7,0-1.2,0.2-1.5,0.7c-0.4,0.5-0.5,1.1-0.5,1.9c0,0.6,0.2,1.1,0.5,1.5s0.8,0.6,1.4,0.6c0.3,0,0.7-0.1,1-0.2
				c0.3-0.1,0.6-0.3,0.9-0.5L108.6,8.9z"/>
			<path class="st4" d="M110,9.5l0.3-4c0-0.5,0.1-1,0-1.5h0.6l0,1.2l-0.1,0.1c0.2-0.5,0.4-0.8,0.8-1s0.8-0.4,1.3-0.4
				c0.7,0,1.2,0.2,1.5,0.5c0.3,0.4,0.5,0.9,0.4,1.6l-0.3,3.5h-0.7l0.3-3.5c0-0.6-0.1-1-0.3-1.2c-0.2-0.3-0.6-0.4-1.1-0.4
				c-0.6,0-1,0.2-1.4,0.5c-0.3,0.3-0.5,0.8-0.6,1.4l-0.3,3.2H110z"/>
		</g>
	</g>
</g>
</svg>
