<?xml version="1.0" encoding="utf-8"?>
<!-- Generator: Adobe Illustrator 24.1.2, SVG Export Plug-In . SVG Version: 6.00 Build 0)  -->
<svg version="1.1" id="Capa_1" xmlns="http://www.w3.org/2000/svg" xmlns:xlink="http://www.w3.org/1999/xlink" x="0px" y="0px"
	 viewBox="0 0 300 300" style="enable-background:new 0 0 300 300;" xml:space="preserve">
<style type="text/css">
	.st0{fill:url(#SVGID_1_);}
	.st1{fill:url(#SVGID_2_);}
	.st2{fill-rule:evenodd;clip-rule:evenodd;fill:url(#SVGID_3_);}
	.st3{fill:url(#SVGID_4_);}
	.st4{fill:#FFFFFF;}
</style>
<g>
	<g>
		<g>
			
				<linearGradient id="SVGID_1_" gradientUnits="userSpaceOnUse" x1="4681.0947" y1="1279.5758" x2="4833.457" y2="1279.5758" gradientTransform="matrix(1.240106e-03 1 -1 1.240106e-03 1329.7555 -4542.8423)">
				<stop  offset="0" style="stop-color:#E74325"/>
				<stop  offset="1" style="stop-color:#E51667"/>
			</linearGradient>
			<path class="st0" d="M101.74,292.14c-1.23,0-2.49-0.21-3.71-0.66c-28.53-10.49-52.97-29.17-70.66-54.05
				C9.28,211.99-0.31,181.99-0.35,150.67c-0.01-5.94,4.8-10.77,10.75-10.77c0,0,0.01,0,0.01,0c5.94,0,10.75,4.81,10.76,10.75
				c0.07,53.66,33.94,102.14,84.28,120.64c5.58,2.05,8.44,8.23,6.39,13.81C110.24,289.44,106.13,292.14,101.74,292.14z"/>
		</g>
		<g>
			
				<linearGradient id="SVGID_2_" gradientUnits="userSpaceOnUse" x1="4541.6816" y1="1173.8439" x2="4842.0278" y2="1173.8439" gradientTransform="matrix(1.240106e-03 1 -1 1.240106e-03 1329.7555 -4542.8423)">
				<stop  offset="0" style="stop-color:#E74325"/>
				<stop  offset="1" style="stop-color:#E51667"/>
			</linearGradient>
			<path class="st1" d="M150,300.65c-5.94,0-10.75-4.81-10.76-10.75c-0.01-5.94,4.8-10.77,10.75-10.77
				c34.37-0.04,66.66-13.46,90.93-37.79c24.27-24.33,37.61-56.65,37.57-91.02c-0.04-34.36-13.46-66.66-37.79-90.92
				c-24.29-24.23-56.55-37.57-90.85-37.57c-0.06,0-0.11,0-0.16,0C106.86,21.88,67,43.14,43.05,78.69
				c-3.32,4.93-10.01,6.23-14.94,2.91c-4.93-3.32-6.23-10.01-2.91-14.94C53.16,25.17,99.68,0.37,149.64,0.31c0.06,0,0.13,0,0.19,0
				c40.04,0,77.7,15.57,106.05,43.85c28.4,28.33,44.07,66.02,44.12,106.13c0.05,40.11-15.52,77.84-43.85,106.24
				c-28.33,28.4-66.02,44.07-106.13,44.12C150.01,300.65,150,300.65,150,300.65z"/>
		</g>
		
			<linearGradient id="SVGID_3_" gradientUnits="userSpaceOnUse" x1="4640.3931" y1="1319.5474" x2="4660.978" y2="1319.5474" gradientTransform="matrix(1.240106e-03 1 -1 1.240106e-03 1329.7555 -4542.8423)">
			<stop  offset="0" style="stop-color:#E74325"/>
			<stop  offset="1" style="stop-color:#E51667"/>
		</linearGradient>
		<circle class="st2" cx="15.98" cy="109.48" r="10.29"/>
	</g>
	<g>
		<linearGradient id="SVGID_4_" gradientUnits="userSpaceOnUse" x1="39.743" y1="150.482" x2="258.9752" y2="150.482">
			<stop  offset="0" style="stop-color:#E74325"/>
			<stop  offset="1" style="stop-color:#E51667"/>
		</linearGradient>
		<circle class="st3" cx="149.36" cy="150.48" r="109.62"/>
	</g>
</g>
<g>
	<g>
		<path class="st4" d="M202.5,177.2l-15.63-15.63c-5.58-5.58-15.07-3.35-17.3,3.91c-1.67,5.02-7.26,7.82-12.28,6.7
			c-11.16-2.79-26.24-17.3-29.03-29.03c-1.67-5.02,1.67-10.61,6.7-12.28c7.26-2.23,9.49-11.72,3.91-17.3l-15.63-15.63
			c-4.47-3.91-11.16-3.91-15.07,0l-10.61,10.61c-10.61,11.16,1.12,40.75,27.35,66.99s55.82,38.52,66.99,27.35l10.61-10.61
			C206.41,187.8,206.41,181.1,202.5,177.2z"/>
	</g>
</g>
</svg>
