<?xml version="1.0" encoding="utf-8"?>
<!-- Generator: Adobe Illustrator 24.1.2, SVG Export Plug-In . SVG Version: 6.00 Build 0)  -->
<svg version="1.1" id="Capa_1" xmlns="http://www.w3.org/2000/svg" xmlns:xlink="http://www.w3.org/1999/xlink" x="0px" y="0px"
	 viewBox="0 0 300 300" style="enable-background:new 0 0 300 300;" xml:space="preserve">
<style type="text/css">
	.st0{fill:url(#SVGID_1_);}
	.st1{fill:url(#SVGID_2_);}
	.st2{fill-rule:evenodd;clip-rule:evenodd;fill:url(#SVGID_3_);}
	.st3{fill:url(#SVGID_4_);}
	.st4{fill:#FFFFFF;}
</style>
<g>
	<g>
		<g>
			<g>
				
					<linearGradient id="SVGID_1_" gradientUnits="userSpaceOnUse" x1="4681.145" y1="1279.6238" x2="4833.5376" y2="1279.6238" gradientTransform="matrix(1.240106e-03 1 -1 1.240106e-03 1329.7555 -4542.8423)">
					<stop  offset="0" style="stop-color:#E74325"/>
					<stop  offset="1" style="stop-color:#E51667"/>
				</linearGradient>
				<path class="st0" d="M101.7,292.22c-1.23,0-2.49-0.21-3.71-0.66c-28.54-10.49-52.98-29.18-70.67-54.06
					c-18.1-25.45-27.69-55.45-27.72-86.78c-0.01-5.94,4.81-10.77,10.75-10.78c0,0,0.01,0,0.01,0c5.94,0,10.75,4.81,10.76,10.75
					c0.07,53.67,33.94,102.16,84.3,120.66c5.58,2.05,8.44,8.23,6.39,13.81C110.21,289.52,106.09,292.22,101.7,292.22z"/>
			</g>
			<g>
				
					<linearGradient id="SVGID_2_" gradientUnits="userSpaceOnUse" x1="4541.7046" y1="1173.8711" x2="4842.1099" y2="1173.8711" gradientTransform="matrix(1.240106e-03 1 -1 1.240106e-03 1329.7555 -4542.8423)">
					<stop  offset="0" style="stop-color:#E74325"/>
					<stop  offset="1" style="stop-color:#E51667"/>
				</linearGradient>
				<path class="st1" d="M149.97,300.73c-5.94,0-10.75-4.81-10.76-10.75c-0.01-5.94,4.81-10.77,10.75-10.78
					c34.37-0.04,66.67-13.47,90.94-37.8c24.27-24.33,37.62-56.67,37.58-91.04c-0.04-34.37-13.47-66.67-37.8-90.94
					c-24.29-24.23-56.56-37.58-90.87-37.58c-0.06,0-0.11,0-0.16,0C106.82,21.91,66.96,43.17,43,78.73
					c-3.32,4.93-10.01,6.23-14.94,2.91c-4.93-3.32-6.23-10.01-2.91-14.94C53.11,25.2,99.64,0.39,149.61,0.33c0.06,0,0.13,0,0.19,0
					c40.05,0,77.71,15.57,106.07,43.86c28.41,28.33,44.08,66.03,44.13,106.16c0.05,40.12-15.53,77.86-43.86,106.26
					c-28.33,28.4-66.03,44.08-106.16,44.12C149.98,300.73,149.97,300.73,149.97,300.73z"/>
			</g>
			
				<linearGradient id="SVGID_3_" gradientUnits="userSpaceOnUse" x1="4640.4355" y1="1319.6031" x2="4661.0244" y2="1319.6031" gradientTransform="matrix(1.240106e-03 1 -1 1.240106e-03 1329.7555 -4542.8423)">
				<stop  offset="0" style="stop-color:#E74325"/>
				<stop  offset="1" style="stop-color:#E51667"/>
			</linearGradient>
			<circle class="st2" cx="15.92" cy="109.52" r="10.29"/>
		</g>
		<g>
			<linearGradient id="SVGID_4_" gradientUnits="userSpaceOnUse" x1="39.6919" y1="150.5346" x2="258.9672" y2="150.5346">
				<stop  offset="0" style="stop-color:#E74325"/>
				<stop  offset="1" style="stop-color:#E51667"/>
			</linearGradient>
			<circle class="st3" cx="149.33" cy="150.53" r="109.64"/>
		</g>
	</g>
	<path class="st4" d="M216.01,117.05c-1.59-5.98-6.27-10.7-12.22-12.3c-10.78-2.91-53.99-2.91-53.99-2.91s-43.21,0-53.99,2.91
		c-5.95,1.6-10.63,6.31-12.22,12.3c-2.89,10.85-2.89,33.48-2.89,33.48s0,22.63,2.89,33.48c1.59,5.98,6.27,10.7,12.22,12.3
		c10.78,2.91,53.99,2.91,53.99,2.91s43.21,0,53.99-2.91c5.95-1.6,10.63-6.31,12.22-12.3c2.89-10.85,2.89-33.48,2.89-33.48
		S218.89,127.9,216.01,117.05z M135.66,171.08v-41.1l36.12,20.55L135.66,171.08z"/>
</g>
</svg>
