<?xml version="1.0" encoding="utf-8"?>
<!-- Generator: Adobe Illustrator 24.1.2, SVG Export Plug-In . SVG Version: 6.00 Build 0)  -->
<svg version="1.1" id="Capa_1" xmlns="http://www.w3.org/2000/svg" xmlns:xlink="http://www.w3.org/1999/xlink" x="0px" y="0px"
	 viewBox="0 0 1148 431" style="enable-background:new 0 0 1148 431;" xml:space="preserve">
<style type="text/css">
	.st0{fill:#009C6B;}
	.st1{fill:#FFFFFF;}
</style>
<g>
	<g>
		<g>
			<path class="st0" d="M422.2,224v139.1c0,6.6-5.7,12-12.2,12c-6.6,0-12-5.4-12-12v-12.2c-1.6,10.2-15.6,24.5-37.1,24.5
				c-25.1,0-55.3-19.5-55.3-60.5c0-40.3,30.4-60.3,55.3-60.3c16.8,0,31.3,8.6,37.1,21.7v-9.1c0-0.7,0-1.6,0.2-2.3v-41
				c0-6.6,5.4-12,11.8-12C416.5,212,422.2,217.5,422.2,224z M399.1,314.9c0-28.3-19-39.6-34.4-39.6c-16.5,0-35.1,12.9-35.1,39.6
				c0,27,18.6,39.9,35.1,39.9C380,354.7,399.1,343,399.1,314.9z"/>
			<path class="st0" d="M560.4,311c0,9.3-5.2,12.9-15,12.9l-75.9-0.2c2.5,21.1,19,31.5,37.2,31.5c9.3,0,15.6-2.3,22.7-6.6
				c3.8-2,6.3-3.6,9.5-3.6c5.2,0,8.4,3.6,8.4,8.6c0,2.9-1.1,6.1-6.1,10.2c-8.6,7-21.1,11.1-35.3,11.1c-29.4,0-60.9-18.8-60.9-59.8
				c0-40.8,32.8-60.5,58.7-60.5C529.3,254.6,560.4,275,560.4,311z M469.5,306.5H537c-2-21.5-18.4-31-33.5-31
				C488.5,275.5,471.6,285,469.5,306.5z"/>
			<path class="st0" d="M595,374.9c-6.6,0-12-5.4-12-12V224c0-6.6,5.4-12,12-12s12,5.4,12,12v138.9C607,369.5,601.6,374.9,595,374.9
				z"/>
			<path class="st0" d="M634.2,221.8c0-6.6,5.7-12,12.2-12s12.2,5.4,12.2,12c0,6.6-5.7,12-12.2,12S634.2,228.3,634.2,221.8z
				 M658.4,267.5v95.4c0,6.8-5.4,12.2-12,12.2s-12-5.4-12-12.2v-95.4c0-6.8,5.4-12.2,12-12.2S658.4,260.7,658.4,267.5z"/>
			<path class="st0" d="M788,266.2c0,2.3-0.7,3.9-1.4,5.4L745,365.2c-2.7,5.7-6.1,9.1-12,9.1c-5.9,0-9.3-3.4-12-9.1l-41.7-93.6
				c-0.7-1.6-1.4-3.2-1.4-5.4c0-5.9,4.8-10.9,11.1-10.9c4.5,0,8.8,2.5,11.3,8.2l32.6,76.8l32.6-76.8c2.3-5.7,6.8-8.2,11.3-8.2
				C783.3,255.3,788,260.3,788,266.2z"/>
			<path class="st0" d="M912.6,311c0,9.3-5.2,12.9-15,12.9l-75.9-0.2c2.5,21.1,19,31.5,37.2,31.5c9.3,0,15.6-2.3,22.7-6.6
				c3.8-2,6.3-3.6,9.5-3.6c5.2,0,8.4,3.6,8.4,8.6c0,2.9-1.1,6.1-6.1,10.2c-8.6,7-21.1,11.1-35.3,11.1c-29.4,0-60.9-18.8-60.9-59.8
				c0-40.8,32.8-60.5,58.7-60.5C881.6,254.6,912.6,275,912.6,311z M821.8,306.5h67.5c-2-21.5-18.4-31-33.5-31
				C840.8,275.5,823.8,285,821.8,306.5z"/>
			<path class="st0" d="M1009.1,265.9c0,6.8-5.2,11.3-15.4,11.3c-19.9,0-32.8,15.4-34.4,27.4v58.2c0,6.6-5.4,12-12,12s-12-5.4-12-12
				v-95.4c0-6.8,5.4-12.2,12-12.2s12,5.4,12,12.2v14.9c1.1-7.9,15.4-27.6,37.6-27.6C1004.8,254.8,1009.1,259.8,1009.1,265.9z"/>
			<path class="st0" d="M1135.7,266.2c0,2.3-0.7,3.9-1.4,5.4l-60.5,138.2c-2.5,5.7-6.8,8.2-11.3,8.2c-6.3,0-10.6-5-10.6-10.9
				c0-2.3,0.7-3.9,1.4-5.4l14-32.4l-43.3-97.6c-0.7-1.6-1.4-3.2-1.4-5.4c0-5.9,4.8-10.9,11.1-10.9c4.5,0,8.8,2.5,11.3,8.2l34,79.1
				l34.2-79.1c2.5-5.7,6.8-8.2,11.3-8.2C1131,255.3,1135.7,260.3,1135.7,266.2z"/>
		</g>
	</g>
	<g>
		<g>
			<g>
				<path class="st0" d="M296.5,109.2c0,12.8,4.2,25.2,12.8,37.2c13.6,14.9,28.4,22.5,44.2,22.7l-255.7,1.1
					c-9.5,0-17.3-8.5-17.3-18.9v-3c0-10.4,7.8-18.9,17.3-18.9h129.8v-0.1h-4.6c9.5,0,18.4-8.5,18.4-18.9v-3
					c0-10.4-8.9-18.9-18.4-18.9h5.8v-0.1h-22.1c-9.5,0-17.3-8.5-17.3-18.9v-3c0-10.4,7.8-18.9,17.3-18.9l148.6,1.2
					c4.6,0,9,0.7,13.2,1.9c-3.9-0.9-8-1.3-12.1-1.3c-11.8,0-23.1,3.6-34.1,10.9C305,73.4,296.5,89.7,296.5,109.2z"/>
			</g>
		</g>
	</g>
	<g>
		<g>
			<path class="st1" d="M356.3,49.3c15.4,0,29.6,5.9,42.3,17.6c1.2,2.3,1.9,4.4,1.9,6.3V74c-1.3,7.2-5,10.8-11.1,10.8H389
				c-2.7,0-7.7-2.8-15-8.3c-5.4-2.8-10.9-4.2-16.4-4.2h-2.4c-14.6,0-25.7,7.7-33.3,23.2c-1.8,5.2-2.6,9.9-2.6,14.1
				c0,14.9,7.7,26.3,23.3,34.1c4.6,1.8,9.5,2.6,14.8,2.6c8.7,0,17.5-3.8,26.5-11.4l4.5-1h1.7c5.9,0,9.4,3.6,10.7,10.8v0.7
				c0,7.2-9.6,14.5-28.9,21.8c-6.3,1.2-11,1.8-14.1,1.8h-3.3c-16.2,0-31.2-7.6-45-22.7c-8.5-12-12.8-24.4-12.8-37.2
				c0-19.5,8.6-35.8,25.8-49C333.2,53,344.6,49.3,356.3,49.3z"/>
			<path class="st1" d="M422.2,5.1h2c7,1.5,10.5,4.8,10.5,9.9v143.5c0,0,0,10.6-10.5,10.6c-9.2,0-12.3-3.7-12.3-11.2V17.2
				C412.7,9.2,416.2,5.1,422.2,5.1z"/>
			<path class="st1" d="M465.9,20.7c7.3,1.8,10.9,5.3,10.9,10.4v2.4c0,5.8-3.9,9.3-11.8,10.4c-5.7,0-9.4-3.9-11.1-11.6
				C455.4,24.5,459.4,20.7,465.9,20.7z M465.9,48.9c7.3,1.8,10.9,5.3,10.9,10.4v99c0,5.9-3.7,9.5-11,10.8h-0.7
				c-6,0-9.7-3.7-11.1-11.2V61.5C454.9,53.1,458.9,48.9,465.9,48.9z"/>
			<path class="st1" d="M553.5,50c15.4,0,29.2,5.8,41.6,17.3c11.8,12.4,17.8,26.4,17.8,41.9c0,22.2-10.5,39.6-31.4,52.3
				c-9.2,4.6-18,7-26.6,7h-3.3c-13.8,0-25.4-4.2-34.6-12.6v41.5c0,5.2-3.7,8.6-11.1,10.3c-5.9,0-9.7-3.7-11.4-11.1v-83.7
				c0-29.8,14.1-49.8,42.2-60.2C540.3,51.5,545.9,50.6,553.5,50z M517.4,108v2.1c0,13.6,6.6,24.2,19.8,31.8
				c4.7,2.4,9.8,3.6,15.2,3.6h2.4c14.2,0,25-7.4,32.5-22.1c1.7-4.6,2.5-9,2.5-13.3V108c0-11.3-5.2-20.9-15.7-28.8
				c-6.2-4.2-13.2-6.3-21.1-6.3c-15.4,0-26.8,8.2-34,24.5C518,101.3,517.4,104.8,517.4,108z"/>
			<path class="st1" d="M680.5,50c15.4,0,29.2,5.8,41.6,17.3c11.8,12.4,17.8,26.4,17.8,41.9c0,22.2-10.5,39.6-31.4,52.3
				c-9.2,4.6-18.1,7-26.6,7h-3.3c-13.8,0-25.4-4.2-34.6-12.6v41.5c0,5.2-3.7,8.6-11.1,10.3c-5.9,0-9.7-3.7-11.4-11.1v-83.7
				c0-29.8,14.1-49.8,42.2-60.2C667.2,51.5,672.8,50.6,680.5,50z M644.3,108v2.1c0,13.6,6.6,24.2,19.8,31.8
				c4.7,2.4,9.8,3.6,15.2,3.6h2.4c14.2,0,25-7.4,32.5-22.1c1.7-4.6,2.5-9,2.5-13.3V108c0-11.3-5.2-20.9-15.7-28.8
				c-6.2-4.2-13.2-6.3-21.1-6.3c-15.4,0-26.8,8.2-34,24.5C645,101.3,644.3,104.8,644.3,108z"/>
		</g>
	</g>
	<ellipse class="st0" cx="135.1" cy="66.4" rx="19.9" ry="20.5"/>
	<ellipse class="st0" cx="25.5" cy="149.3" rx="19.9" ry="20.5"/>
</g>
</svg>
