<?xml version="1.0" encoding="utf-8"?>
<!-- Generator: Adobe Illustrator 24.1.2, SVG Export Plug-In . SVG Version: 6.00 Build 0)  -->
<svg version="1.1" id="Capa_1" xmlns="http://www.w3.org/2000/svg" xmlns:xlink="http://www.w3.org/1999/xlink" x="0px" y="0px"
	 viewBox="0 0 600 300" style="enable-background:new 0 0 600 300;" xml:space="preserve">
<style type="text/css">
	.st0{fill-rule:evenodd;clip-rule:evenodd;fill:url(#SVGID_1_);}
	.st1{fill-rule:evenodd;clip-rule:evenodd;fill:url(#SVGID_2_);}
	.st2{fill-rule:evenodd;clip-rule:evenodd;fill:url(#SVGID_3_);}
	.st3{fill-rule:evenodd;clip-rule:evenodd;fill:url(#SVGID_4_);}
	.st4{fill-rule:evenodd;clip-rule:evenodd;fill:url(#SVGID_5_);}
	.st5{fill-rule:evenodd;clip-rule:evenodd;fill:url(#SVGID_6_);}
	.st6{fill:url(#SVGID_7_);}
	.st7{fill:url(#SVGID_8_);}
	.st8{fill:url(#SVGID_9_);}
	.st9{fill:url(#SVGID_10_);}
	.st10{fill:url(#SVGID_11_);}
	.st11{fill:url(#SVGID_12_);}
	.st12{fill:#FFFFFF;}
	.st13{fill-rule:evenodd;clip-rule:evenodd;fill:#FFFFFF;}
	.st14{fill-rule:evenodd;clip-rule:evenodd;fill:url(#SVGID_13_);}
	.st15{fill-rule:evenodd;clip-rule:evenodd;fill:url(#SVGID_14_);}
	.st16{fill-rule:evenodd;clip-rule:evenodd;fill:url(#SVGID_15_);}
	.st17{fill-rule:evenodd;clip-rule:evenodd;fill:url(#SVGID_16_);}
	.st18{fill-rule:evenodd;clip-rule:evenodd;fill:url(#SVGID_17_);}
	.st19{fill-rule:evenodd;clip-rule:evenodd;fill:url(#SVGID_18_);}
</style>
<g>
	<g>
		<linearGradient id="SVGID_1_" gradientUnits="userSpaceOnUse" x1="27.8959" y1="153.5555" x2="27.8959" y2="105.6451">
			<stop  offset="0" style="stop-color:#C50219"/>
			<stop  offset="0.5697" style="stop-color:#E30613"/>
		</linearGradient>
		<path class="st0" d="M1.8,153.6c1.9-6,3.5-11.1,4.6-15.2c1.2-4.1,2.6-9.5,4.4-16.2c1.8-6.8,2.9-11.2,3.4-13.4l0.7-3.1
			c5.5,0,12.2,0.1,20,0.1c7.2,0,13.6,0,19.1-0.1l-0.3,1.2c-0.1,0.3-0.4,1.3-0.9,3l-1.1,3.8c-0.2,0.8-0.4,1.6-0.6,2.5
			c-4.5-0.2-8.2-0.3-11.3-0.3c-3.4,0-5.6,0-6.8,0c-1.2,0-3,0.1-5.5,0.2l-2.3,8.1c2.7,0.1,6,0.1,9.6,0.1c1.3,0,4.8-0.1,10.5-0.2
			c-0.9,3-1.9,6.6-3.1,10.8c-4,0-7.2-0.1-9.3-0.1c-3.2,0-6.9,0.1-10.9,0.2l-2.2,8.4h4c1.2,0,3.7,0,7.4-0.1l7.3-0.2
			c1.1,0,2.9-0.1,5.4-0.3c-1.1,3.5-2.1,7.1-3.1,10.8c-5.7,0-11.9-0.1-18.7-0.1l-15.4,0L1.8,153.6L1.8,153.6z"/>
		<linearGradient id="SVGID_2_" gradientUnits="userSpaceOnUse" x1="63.6465" y1="153.5555" x2="63.6465" y2="105.6451">
			<stop  offset="0" style="stop-color:#C50219"/>
			<stop  offset="0.5697" style="stop-color:#E30613"/>
		</linearGradient>
		<path class="st1" d="M43.4,153.6c1.8-5.5,3.3-10,4.3-13.5c1.9-6.4,3.7-12.7,5.4-19c1.6-6.3,2.9-11.4,3.8-15.4c3.2,0,6,0.1,8.4,0.1
			c1.7,0,4,0,7.2-0.1l-3.7,12.7l-5.5,19.9l-1.2,4.9c4,0.1,6.6,0.1,7.8,0.1c6.2,0,10.8-0.1,14-0.2l-3.2,10.5c-6.1,0-12-0.1-17.5-0.1
			C55.7,153.5,49.1,153.5,43.4,153.6L43.4,153.6z"/>
		<linearGradient id="SVGID_3_" gradientUnits="userSpaceOnUse" x1="107.9436" y1="153.5555" x2="107.9436" y2="105.6451">
			<stop  offset="0" style="stop-color:#C50219"/>
			<stop  offset="0.5697" style="stop-color:#E30613"/>
		</linearGradient>
		<path class="st2" d="M81.8,153.6c1.9-6,3.5-11.1,4.6-15.2c1.2-4.1,2.6-9.5,4.4-16.2c1.8-6.8,2.9-11.2,3.4-13.4l0.7-3.1
			c5.5,0,12.2,0.1,20,0.1c7.2,0,13.6,0,19.1-0.1l-0.3,1.2c-0.1,0.3-0.4,1.3-0.9,3l-1.1,3.8c-0.2,0.8-0.4,1.6-0.6,2.5
			c-4.5-0.2-8.2-0.3-11.2-0.3c-3.4,0-5.6,0-6.8,0c-1.2,0-3,0.1-5.5,0.2l-2.3,8.1c2.7,0.1,6,0.1,9.6,0.1c1.3,0,4.8-0.1,10.5-0.2
			c-0.9,3-1.9,6.6-3.1,10.8c-4,0-7.2-0.1-9.3-0.1c-3.2,0-6.9,0.1-10.9,0.2l-2.2,8.4h4c1.2,0,3.7,0,7.4-0.1l7.3-0.2
			c1.1,0,2.9-0.1,5.4-0.3c-1.1,3.5-2.1,7.1-3.1,10.8c-5.7,0-11.9-0.1-18.7-0.1l-15.4,0L81.8,153.6L81.8,153.6z"/>
		<linearGradient id="SVGID_4_" gradientUnits="userSpaceOnUse" x1="151.6288" y1="154.5352" x2="151.6288" y2="104.8055">
			<stop  offset="0" style="stop-color:#C50219"/>
			<stop  offset="0.5697" style="stop-color:#E30613"/>
		</linearGradient>
		<path class="st3" d="M167.9,141.8c-0.6,1.4-1.4,3.3-2.3,5.8c-1,2.5-1.7,4.4-2.1,5.8c-5.2,0.7-9.7,1.1-13.7,1.1
			c-3.8,0-7.2-0.5-10.3-1.4c-3.1-0.9-5.7-2.5-7.9-4.7c-2.2-2.2-3.6-4.7-4.1-7.6c-0.5-2.9-0.4-6.2,0.4-9.8c0.9-4.2,2.6-8,4.9-11.4
			c2.3-3.4,5.2-6.2,8.7-8.5c3.5-2.3,7.1-3.9,10.8-4.8c3.7-1,7.5-1.5,11.3-1.5c3.5,0,7.6,0.5,12.5,1.4l-0.6,2.9
			c-0.2,1.3-0.5,2.7-0.7,4.2l-0.6,4c-2.6-0.7-4.7-1.1-6.4-1.3c-1.6-0.2-3.2-0.3-4.6-0.3c-3.2,0-6.1,0.6-9,1.9
			c-2.8,1.3-5.2,3.1-7.2,5.5c-2,2.4-3.3,5.1-4,8c-0.6,2.7-0.5,4.9,0.3,6.8c0.8,1.9,2.1,3.4,4,4.4c1.8,1,4.3,1.6,7.3,1.6
			c1.7,0,3.5-0.1,5.5-0.4C162.2,143.1,164.8,142.6,167.9,141.8L167.9,141.8z"/>
		<linearGradient id="SVGID_5_" gradientUnits="userSpaceOnUse" x1="200.3419" y1="153.5555" x2="200.3419" y2="105.6451">
			<stop  offset="0" style="stop-color:#C50219"/>
			<stop  offset="0.5697" style="stop-color:#E30613"/>
		</linearGradient>
		<path class="st4" d="M181.1,153.6c3.7-11.4,7.2-24,10.5-37.7l-15.1,0.4l1-3.9c0.6-2.1,1.1-4.3,1.7-6.8c6.6,0,14.4,0.1,23.2,0.1
			l8.7,0h8.4l4.6,0l-1,3.4c-0.5,1.8-0.9,3.3-1.2,4.5c-0.3,1.2-0.5,2.1-0.7,2.7c-4.9-0.3-9-0.4-12.3-0.4h-2.5
			c-1.3,4.2-2.4,8-3.3,11.5c-1.4,5-2.6,9.9-3.8,14.7c-1.2,4.7-2.1,8.6-2.8,11.5c-3.8,0-6.3-0.1-7.5-0.1
			C188.2,153.5,185.5,153.5,181.1,153.6L181.1,153.6z"/>
		<linearGradient id="SVGID_6_" gradientUnits="userSpaceOnUse" x1="239.3006" y1="153.4866" x2="239.3006" y2="105.3649">
			<stop  offset="0" style="stop-color:#C50219"/>
			<stop  offset="0.5697" style="stop-color:#E30613"/>
		</linearGradient>
		<path class="st5" d="M212.7,153.5c1.4-4.1,2.5-7.8,3.5-11.1c1-3.3,2.1-7.1,3.2-11.5c1.2-4.4,2.3-8.9,3.5-13.8
			c1.2-4.8,2.1-8.7,2.7-11.5c2.9,0.1,5.3,0.1,7.1,0.1c1.9,0,4.2-0.1,6.9-0.2c2.7-0.1,5.3-0.2,7.9-0.2c3,0,5.6,0.1,7.9,0.3
			c1.7,0.2,3.2,0.5,4.6,1c1.3,0.5,2.4,1.1,3.2,1.9c0.8,0.7,1.5,1.6,1.9,2.5c0.4,0.9,0.7,2,0.8,3.2c0.1,1.2,0,2.5-0.3,3.9
			c-0.3,1.6-0.9,3-1.6,4.4c-0.7,1.4-1.6,2.7-2.7,3.9c-1.1,1.2-2.4,2.2-3.9,3.1c-1.5,0.9-3.5,1.8-6,2.7l0.8,4.5
			c0.2,1.2,0.5,2.5,0.8,3.8l2.4,10.3c0.1,0.4,0.3,1.3,0.5,2.6c-3.8,0-6.4-0.1-7.7-0.1c-1.7,0-4.4,0-8.2,0.1
			c-0.1-1.2-0.3-3.5-0.5-6.8c-0.1-1.4-0.2-2.4-0.3-3.2c-0.2-1.7-0.5-4-1-7l-1.4-9.9c1.2,0.3,2.4,0.4,3.6,0.4c1.7,0,3.3-0.3,4.8-0.8
			c1.5-0.5,2.7-1.3,3.6-2.4c0.9-1.1,1.6-2.2,1.8-3.4c0.2-1,0.2-1.9-0.2-2.7c-0.4-0.8-1.1-1.3-2.1-1.7c-1.1-0.4-2.8-0.6-5.2-0.6
			c-0.8,0-1.7,0-2.5,0.1c-0.9,0-1.9,0.1-3.1,0.1c-1.4,4.8-2.9,10.6-4.7,17.5c-1.8,6.9-3.4,13.7-5,20.3c-3.9,0-6.5-0.1-7.6-0.1
			C218.7,153.4,216.2,153.4,212.7,153.5L212.7,153.5z"/>
	</g>
	<g>
		<radialGradient id="SVGID_7_" cx="288.7857" cy="119.6949" r="48.5511" gradientUnits="userSpaceOnUse">
			<stop  offset="0" style="stop-color:#F4AD90"/>
			<stop  offset="6.117944e-03" style="stop-color:#F3A78B"/>
			<stop  offset="5.195408e-02" style="stop-color:#EF7C6C"/>
			<stop  offset="0.1002" style="stop-color:#EB5850"/>
			<stop  offset="0.1505" style="stop-color:#E83A3A"/>
			<stop  offset="0.2033" style="stop-color:#E62329"/>
			<stop  offset="0.26" style="stop-color:#E4121D"/>
			<stop  offset="0.3232" style="stop-color:#E30916"/>
			<stop  offset="0.4061" style="stop-color:#E30613"/>
			<stop  offset="0.5605" style="stop-color:#E00613"/>
			<stop  offset="0.6641" style="stop-color:#D80613"/>
			<stop  offset="0.7528" style="stop-color:#C80712"/>
			<stop  offset="0.8331" style="stop-color:#B30911"/>
			<stop  offset="0.9077" style="stop-color:#970A10"/>
			<stop  offset="0.9772" style="stop-color:#760C0F"/>
			<stop  offset="1" style="stop-color:#690D0E"/>
		</radialGradient>
		<path class="st6" d="M318.5,153.1c-11.5-0.8-20.7-6.7-30.2-13.9c-5.6-3.6-11.9-5.2-18.7-4.8c-0.8,0.1-1.5,0.2-2.3,0.3
			c0.1,3,0.6,5.8,1.4,8.5c4.5-0.2,9.1,0.8,13.1,2.7c8.7,4,16.3,9.1,25.8,11.9c3.3,0.9,6.5,1.4,9.7,1.5c2.4-1.7,4.6-3.8,6.4-6.2
			C322.1,153.3,320.3,153.2,318.5,153.1z"/>
		<radialGradient id="SVGID_8_" cx="288.7857" cy="119.6948" r="48.5513" gradientUnits="userSpaceOnUse">
			<stop  offset="0" style="stop-color:#F4AD90"/>
			<stop  offset="6.117944e-03" style="stop-color:#F3A78B"/>
			<stop  offset="5.195408e-02" style="stop-color:#EF7C6C"/>
			<stop  offset="0.1002" style="stop-color:#EB5850"/>
			<stop  offset="0.1505" style="stop-color:#E83A3A"/>
			<stop  offset="0.2033" style="stop-color:#E62329"/>
			<stop  offset="0.26" style="stop-color:#E4121D"/>
			<stop  offset="0.3232" style="stop-color:#E30916"/>
			<stop  offset="0.4061" style="stop-color:#E30613"/>
			<stop  offset="0.5605" style="stop-color:#E00613"/>
			<stop  offset="0.6641" style="stop-color:#D80613"/>
			<stop  offset="0.7528" style="stop-color:#C80712"/>
			<stop  offset="0.8331" style="stop-color:#B30911"/>
			<stop  offset="0.9077" style="stop-color:#970A10"/>
			<stop  offset="0.9772" style="stop-color:#760C0F"/>
			<stop  offset="1" style="stop-color:#690D0E"/>
		</radialGradient>
		<path class="st7" d="M303,159.1c-7.5-2.8-14.3-6.7-21.8-9.9c-3.6-1.4-7.1-2-10.8-2c5.1,10.7,16,18.2,28.6,18.2
			c5.5,0,10.7-1.4,15.2-3.9c-2.3-0.3-4.5-0.7-6.8-1.2C305.8,159.9,304.6,159.5,303,159.1z"/>
		<radialGradient id="SVGID_9_" cx="288.7858" cy="119.6948" r="48.5512" gradientUnits="userSpaceOnUse">
			<stop  offset="0" style="stop-color:#F4AD90"/>
			<stop  offset="6.117944e-03" style="stop-color:#F3A78B"/>
			<stop  offset="5.195408e-02" style="stop-color:#EF7C6C"/>
			<stop  offset="0.1002" style="stop-color:#EB5850"/>
			<stop  offset="0.1505" style="stop-color:#E83A3A"/>
			<stop  offset="0.2033" style="stop-color:#E62329"/>
			<stop  offset="0.26" style="stop-color:#E4121D"/>
			<stop  offset="0.3232" style="stop-color:#E30916"/>
			<stop  offset="0.4061" style="stop-color:#E30613"/>
			<stop  offset="0.5605" style="stop-color:#E00613"/>
			<stop  offset="0.6641" style="stop-color:#D80613"/>
			<stop  offset="0.7528" style="stop-color:#C80712"/>
			<stop  offset="0.8331" style="stop-color:#B30911"/>
			<stop  offset="0.9077" style="stop-color:#970A10"/>
			<stop  offset="0.9772" style="stop-color:#760C0F"/>
			<stop  offset="1" style="stop-color:#690D0E"/>
		</radialGradient>
		<path class="st8" d="M318.1,143.2c-8.7-1.2-15.5-5.9-21.8-11.9c-3.2-2.8-6.8-4.8-10.7-6c-5.6-1.6-10.7-2-16.3-1.6
			c-0.1,0-0.2,0-0.3,0c-0.8,2.4-1.3,5-1.5,7.7c7.5-1.1,15.3,0.4,22.1,5c6.4,4.4,11.5,9.5,19.1,11.9c5.6,1.8,11.4,2.6,17.2,2.3
			c1.4-2.2,2.5-4.6,3.4-7.2C325.5,143.9,321.9,143.8,318.1,143.2z"/>
		<radialGradient id="SVGID_10_" cx="288.7857" cy="119.6949" r="48.5513" gradientUnits="userSpaceOnUse">
			<stop  offset="0" style="stop-color:#F4AD90"/>
			<stop  offset="6.117944e-03" style="stop-color:#F3A78B"/>
			<stop  offset="5.195408e-02" style="stop-color:#EF7C6C"/>
			<stop  offset="0.1002" style="stop-color:#EB5850"/>
			<stop  offset="0.1505" style="stop-color:#E83A3A"/>
			<stop  offset="0.2033" style="stop-color:#E62329"/>
			<stop  offset="0.26" style="stop-color:#E4121D"/>
			<stop  offset="0.3232" style="stop-color:#E30916"/>
			<stop  offset="0.4061" style="stop-color:#E30613"/>
			<stop  offset="0.5605" style="stop-color:#E00613"/>
			<stop  offset="0.6641" style="stop-color:#D80613"/>
			<stop  offset="0.7528" style="stop-color:#C80712"/>
			<stop  offset="0.8331" style="stop-color:#B30911"/>
			<stop  offset="0.9077" style="stop-color:#970A10"/>
			<stop  offset="0.9772" style="stop-color:#760C0F"/>
			<stop  offset="1" style="stop-color:#690D0E"/>
		</radialGradient>
		<path class="st9" d="M318.9,115c2.2,0.8,4.3,1.2,6.5,1.3c-5.7-8.6-15.4-14.2-26.4-14.2c-4,0-7.7,0.7-11.2,2.1
			c2.4,0.5,4.9,1,7.2,1.6C303.3,108.5,310.5,112.3,318.9,115z"/>
		<radialGradient id="SVGID_11_" cx="288.7857" cy="119.6947" r="48.5513" gradientUnits="userSpaceOnUse">
			<stop  offset="0" style="stop-color:#F4AD90"/>
			<stop  offset="6.117944e-03" style="stop-color:#F3A78B"/>
			<stop  offset="5.195408e-02" style="stop-color:#EF7C6C"/>
			<stop  offset="0.1002" style="stop-color:#EB5850"/>
			<stop  offset="0.1505" style="stop-color:#E83A3A"/>
			<stop  offset="0.2033" style="stop-color:#E62329"/>
			<stop  offset="0.26" style="stop-color:#E4121D"/>
			<stop  offset="0.3232" style="stop-color:#E30916"/>
			<stop  offset="0.4061" style="stop-color:#E30613"/>
			<stop  offset="0.5605" style="stop-color:#E00613"/>
			<stop  offset="0.6641" style="stop-color:#D80613"/>
			<stop  offset="0.7528" style="stop-color:#C80712"/>
			<stop  offset="0.8331" style="stop-color:#B30911"/>
			<stop  offset="0.9077" style="stop-color:#970A10"/>
			<stop  offset="0.9772" style="stop-color:#760C0F"/>
			<stop  offset="1" style="stop-color:#690D0E"/>
		</radialGradient>
		<path class="st10" d="M309.7,124.2c3.6,2.4,7.2,3.6,11.1,4.8c3.1,0.6,6.3,0.5,9.4,0.2c-0.5-3.3-1.4-6.4-2.8-9.2
			c-1.9-0.1-3.9-0.3-5.8-0.5c-4-1.2-7.9-2.4-11.5-4.4c-8.2-4.7-17.1-8-26.3-9.1c-2.8,1.6-5.4,3.5-7.6,5.8c7.3,0.2,14.6,1.4,21.2,4.8
			C301.8,119,305.4,121.4,309.7,124.2z"/>
		<radialGradient id="SVGID_12_" cx="288.7857" cy="119.6947" r="48.5512" gradientUnits="userSpaceOnUse">
			<stop  offset="0" style="stop-color:#F4AD90"/>
			<stop  offset="6.117944e-03" style="stop-color:#F3A78B"/>
			<stop  offset="5.195408e-02" style="stop-color:#EF7C6C"/>
			<stop  offset="0.1002" style="stop-color:#EB5850"/>
			<stop  offset="0.1505" style="stop-color:#E83A3A"/>
			<stop  offset="0.2033" style="stop-color:#E62329"/>
			<stop  offset="0.26" style="stop-color:#E4121D"/>
			<stop  offset="0.3232" style="stop-color:#E30916"/>
			<stop  offset="0.4061" style="stop-color:#E30613"/>
			<stop  offset="0.5605" style="stop-color:#E00613"/>
			<stop  offset="0.6641" style="stop-color:#D80613"/>
			<stop  offset="0.7528" style="stop-color:#C80712"/>
			<stop  offset="0.8331" style="stop-color:#B30911"/>
			<stop  offset="0.9077" style="stop-color:#970A10"/>
			<stop  offset="0.9772" style="stop-color:#760C0F"/>
			<stop  offset="1" style="stop-color:#690D0E"/>
		</radialGradient>
		<path class="st11" d="M291.1,124.6c1.2,0.8,2.4,1.2,3.6,2c3.6,2.4,6,4.8,9.1,7.5c7.7,5.9,17.1,7.9,26.1,6.4
			c0.5-2.2,0.7-4.5,0.7-6.8c0-0.4,0-0.9,0-1.3c-0.2,0-0.4,0-0.6,0.1c-6,0.8-11.9-0.4-17.1-3.2c-5.2-2.4-9.1-5.9-14.3-9.1
			c-3.2-2-6.8-3.6-10.3-4.4c-4.9-1.2-9.4-1.7-14.1-1.7c-1.7,2.1-3.1,4.4-4.2,6.9C277.2,120.2,284.5,121.1,291.1,124.6z"/>
	</g>
	<g>
		<path class="st12" d="M2.2,182.2h8.5v2.9H7.9v12.5h-3V185H2.2V182.2z"/>
		<path class="st12" d="M25.5,182.2h8.4v2.9h-5.5v2.8h5.5v2.8h-5.5v4h5.5v2.9h-8.4V182.2z"/>
		<path class="st12" d="M63.6,184.9l-2,1.9c-1.4-1.5-3-2.2-4.7-2.2c-1.5,0-2.7,0.5-3.7,1.5c-1,1-1.5,2.2-1.5,3.7
			c0,1,0.2,1.9,0.7,2.7c0.4,0.8,1.1,1.4,1.9,1.9c0.8,0.5,1.7,0.7,2.7,0.7c0.8,0,1.6-0.2,2.3-0.5c0.7-0.3,1.5-0.9,2.3-1.7l2,2.1
			c-1.1,1.1-2.2,1.9-3.2,2.3c-1,0.4-2.2,0.6-3.5,0.6c-2.4,0-4.3-0.8-5.9-2.3c-1.5-1.5-2.3-3.5-2.3-5.8c0-1.5,0.3-2.9,1-4.1
			c0.7-1.2,1.7-2.1,3-2.9c1.3-0.7,2.7-1.1,4.2-1.1c1.3,0,2.5,0.3,3.7,0.8C61.7,183.1,62.7,183.9,63.6,184.9z"/>
		<path class="st12" d="M79,182.2h2.8l6.6,10.1v-10.1h2.9v15.4h-2.8l-6.6-10.1v10.1H79V182.2z"/>
		<path class="st12" d="M114.9,181.8c2.2,0,4,0.8,5.6,2.4c1.6,1.6,2.3,3.5,2.3,5.8c0,2.2-0.8,4.1-2.3,5.7c-1.5,1.6-3.4,2.3-5.6,2.3
			c-2.3,0-4.2-0.8-5.7-2.4c-1.5-1.6-2.3-3.5-2.3-5.7c0-1.5,0.4-2.8,1.1-4.1c0.7-1.2,1.7-2.2,2.9-2.9
			C112.1,182.1,113.5,181.8,114.9,181.8z M114.9,184.6c-1.4,0-2.6,0.5-3.6,1.5c-1,1-1.5,2.2-1.5,3.8c0,1.7,0.6,3,1.8,4
			c0.9,0.8,2,1.2,3.3,1.2c1.4,0,2.6-0.5,3.5-1.5c1-1,1.5-2.2,1.5-3.7c0-1.5-0.5-2.7-1.5-3.7C117.5,185.1,116.3,184.6,114.9,184.6z"
			/>
		<path class="st12" d="M138.4,182.2h2.9v12.6h4.3v2.8h-7.2V182.2z"/>
		<path class="st12" d="M167.9,181.8c2.2,0,4,0.8,5.6,2.4c1.6,1.6,2.3,3.5,2.3,5.8c0,2.2-0.8,4.1-2.3,5.7c-1.5,1.6-3.4,2.3-5.6,2.3
			c-2.3,0-4.2-0.8-5.7-2.4c-1.5-1.6-2.3-3.5-2.3-5.7c0-1.5,0.4-2.8,1.1-4.1c0.7-1.2,1.7-2.2,2.9-2.9
			C165.2,182.1,166.5,181.8,167.9,181.8z M167.9,184.6c-1.4,0-2.6,0.5-3.6,1.5c-1,1-1.5,2.2-1.5,3.8c0,1.7,0.6,3,1.8,4
			c0.9,0.8,2,1.2,3.3,1.2c1.4,0,2.6-0.5,3.5-1.5c1-1,1.5-2.2,1.5-3.7c0-1.5-0.5-2.7-1.5-3.7C170.5,185.1,169.3,184.6,167.9,184.6z"
			/>
		<path class="st12" d="M205.7,184.7l-2.1,2c-1.3-1.4-2.8-2.1-4.6-2.1c-1.5,0-2.8,0.5-3.8,1.5c-1,1-1.5,2.2-1.5,3.7
			c0,1.5,0.5,2.7,1.6,3.8c1.1,1,2.4,1.5,3.9,1.5c1,0,1.9-0.2,2.6-0.6c0.7-0.4,1.3-1.1,1.7-2H199v-2.7h7.7l0,0.6c0,1.3-0.3,2.6-1,3.8
			c-0.7,1.2-1.6,2.1-2.7,2.8c-1.1,0.6-2.4,1-3.9,1c-1.6,0-3-0.3-4.3-1c-1.2-0.7-2.2-1.7-3-3c-0.7-1.3-1.1-2.7-1.1-4.1
			c0-2,0.7-3.8,2-5.3c1.6-1.8,3.7-2.7,6.2-2.7c1.3,0,2.6,0.2,3.7,0.7C203.8,182.9,204.7,183.7,205.7,184.7z"/>
		<path class="st12" d="M224,176.9h3.4l-3.8,4.1h-2L224,176.9z M222.1,182.2h2.9v15.4h-2.9V182.2z"/>
		<path class="st12" d="M245.8,182.2h3l5.9,15.4h-3l-1.2-3.2h-6.3l-1.2,3.2h-3L245.8,182.2z M247.3,186.2l-2.1,5.3h4.1L247.3,186.2z
			"/>
		<path class="st12" d="M293.2,182.2h3l5.9,15.4h-3l-1.2-3.2h-6.3l-1.2,3.2h-3L293.2,182.2z M294.7,186.2l-2.1,5.3h4.1L294.7,186.2z
			"/>
		<path class="st12" d="M344.1,184.3l-2.2,1.9c-0.8-1.1-1.5-1.6-2.3-1.6c-0.4,0-0.7,0.1-0.9,0.3c-0.2,0.2-0.4,0.4-0.4,0.7
			c0,0.3,0.1,0.5,0.3,0.7c0.2,0.3,1,1,2.1,2c1.1,0.9,1.8,1.5,2,1.8c0.6,0.6,1,1.2,1.3,1.7c0.2,0.5,0.4,1.1,0.4,1.8
			c0,1.3-0.4,2.3-1.3,3.1c-0.9,0.8-2,1.2-3.4,1.2c-1.1,0-2-0.3-2.9-0.8c-0.8-0.5-1.5-1.4-2.1-2.5l2.5-1.5c0.7,1.4,1.6,2,2.6,2
			c0.5,0,0.9-0.1,1.3-0.4c0.3-0.3,0.5-0.6,0.5-1c0-0.3-0.1-0.7-0.4-1c-0.3-0.3-0.8-0.9-1.7-1.6c-1.7-1.4-2.8-2.4-3.2-3.2
			c-0.5-0.7-0.7-1.5-0.7-2.2c0-1.1,0.4-2,1.2-2.7c0.8-0.8,1.8-1.1,3-1.1c0.8,0,1.5,0.2,2.2,0.5C342.5,182.7,343.3,183.3,344.1,184.3
			z"/>
		<path class="st12" d="M359.9,182.2h2.9v9.9c0,0.9,0.1,1.5,0.2,1.8c0.1,0.4,0.4,0.6,0.7,0.9c0.3,0.2,0.8,0.3,1.2,0.3
			c0.5,0,1-0.1,1.3-0.4c0.4-0.2,0.6-0.5,0.8-0.9c0.1-0.4,0.2-1.1,0.2-2.1v-9.6h2.9v9.2c0,1.5-0.1,2.6-0.3,3.2
			c-0.2,0.6-0.5,1.2-1,1.7c-0.5,0.6-1.1,1-1.7,1.2c-0.6,0.3-1.4,0.4-2.2,0.4c-1.1,0-2.1-0.3-2.9-0.8c-0.8-0.5-1.4-1.2-1.8-1.9
			c-0.4-0.8-0.5-2.1-0.5-3.9V182.2z"/>
		<path class="st12" d="M413.4,184.3l-2.2,1.9c-0.8-1.1-1.5-1.6-2.3-1.6c-0.4,0-0.7,0.1-0.9,0.3c-0.2,0.2-0.4,0.4-0.4,0.7
			c0,0.3,0.1,0.5,0.3,0.7c0.2,0.3,1,1,2.1,2c1.1,0.9,1.8,1.5,2,1.8c0.6,0.6,1,1.2,1.3,1.7c0.2,0.5,0.4,1.1,0.4,1.8
			c0,1.3-0.4,2.3-1.3,3.1c-0.9,0.8-2,1.2-3.4,1.2c-1.1,0-2-0.3-2.9-0.8c-0.8-0.5-1.5-1.4-2.1-2.5l2.5-1.5c0.7,1.4,1.6,2,2.6,2
			c0.5,0,0.9-0.1,1.3-0.4c0.3-0.3,0.5-0.6,0.5-1c0-0.3-0.1-0.7-0.4-1c-0.3-0.3-0.8-0.9-1.7-1.6c-1.7-1.4-2.8-2.4-3.2-3.2
			c-0.5-0.7-0.7-1.5-0.7-2.2c0-1.1,0.4-2,1.2-2.7c0.8-0.8,1.8-1.1,3-1.1c0.8,0,1.5,0.2,2.2,0.5C411.8,182.7,412.6,183.3,413.4,184.3
			z"/>
		<path class="st12" d="M429.3,182.2h8.4v2.9h-5.5v2.8h5.5v2.8h-5.5v4h5.5v2.9h-8.4V182.2z"/>
		<path class="st12" d="M453.4,182.2h3.1c1.7,0,2.9,0.2,3.6,0.5c0.7,0.3,1.3,0.8,1.7,1.5c0.4,0.7,0.7,1.5,0.7,2.5
			c0,1-0.2,1.9-0.7,2.5c-0.5,0.7-1.2,1.2-2.2,1.5l3.6,6.8h-3.2l-3.5-6.5h-0.3v6.5h-2.9V182.2z M456.4,188.2h0.9
			c0.9,0,1.6-0.1,1.9-0.4c0.4-0.2,0.5-0.6,0.5-1.2c0-0.3-0.1-0.6-0.3-0.9c-0.2-0.2-0.4-0.4-0.7-0.5c-0.3-0.1-0.8-0.2-1.6-0.2h-0.8
			V188.2z"/>
		<path class="st12" d="M477.3,182.2h3l3.9,10.9l3.9-10.9h3l-5.5,15.4h-2.8L477.3,182.2z"/>
		<path class="st12" d="M506.1,182.2h2.9v15.4h-2.9V182.2z"/>
		<path class="st12" d="M539.2,184.9l-2,1.9c-1.4-1.5-3-2.2-4.7-2.2c-1.5,0-2.7,0.5-3.7,1.5c-1,1-1.5,2.2-1.5,3.7
			c0,1,0.2,1.9,0.7,2.7c0.4,0.8,1.1,1.4,1.9,1.9c0.8,0.5,1.7,0.7,2.7,0.7c0.8,0,1.6-0.2,2.3-0.5c0.7-0.3,1.5-0.9,2.3-1.7l2,2.1
			c-1.1,1.1-2.2,1.9-3.2,2.3c-1,0.4-2.2,0.6-3.5,0.6c-2.4,0-4.3-0.8-5.9-2.3c-1.5-1.5-2.3-3.5-2.3-5.8c0-1.5,0.3-2.9,1-4.1
			c0.7-1.2,1.7-2.1,3-2.9c1.3-0.7,2.7-1.1,4.2-1.1c1.3,0,2.5,0.3,3.7,0.8C537.4,183.1,538.4,183.9,539.2,184.9z"/>
		<path class="st12" d="M554.4,182.2h2.9v15.4h-2.9V182.2z"/>
		<path class="st12" d="M580.7,181.8c2.2,0,4,0.8,5.6,2.4c1.6,1.6,2.3,3.5,2.3,5.8c0,2.2-0.8,4.1-2.3,5.7c-1.5,1.6-3.4,2.3-5.6,2.3
			c-2.3,0-4.2-0.8-5.7-2.4c-1.5-1.6-2.3-3.5-2.3-5.7c0-1.5,0.4-2.8,1.1-4.1c0.7-1.2,1.7-2.2,2.9-2.9
			C577.9,182.1,579.3,181.8,580.7,181.8z M580.7,184.6c-1.4,0-2.6,0.5-3.6,1.5c-1,1-1.5,2.2-1.5,3.8c0,1.7,0.6,3,1.8,4
			c0.9,0.8,2,1.2,3.3,1.2c1.4,0,2.6-0.5,3.5-1.5c1-1,1.5-2.2,1.5-3.7c0-1.5-0.5-2.7-1.5-3.7C583.3,185.1,582.1,184.6,580.7,184.6z"
			/>
	</g>
	<g>
		<path class="st13" d="M380.6,141.8c-0.6,1.4-1.4,3.3-2.3,5.8c-1,2.5-1.7,4.4-2.1,5.8c-5.2,0.7-9.7,1.1-13.6,1.1
			c-3.8,0-7.2-0.5-10.3-1.4c-3.1-0.9-5.7-2.5-7.9-4.7c-2.2-2.2-3.6-4.7-4.1-7.6c-0.5-2.9-0.4-6.2,0.4-9.8c0.9-4.2,2.6-8,4.9-11.4
			c2.3-3.4,5.2-6.2,8.7-8.5c3.5-2.3,7.1-3.9,10.8-4.8c3.7-1,7.5-1.5,11.3-1.5c3.5,0,7.6,0.5,12.5,1.4l-0.6,2.9
			c-0.2,1.3-0.5,2.7-0.7,4.2l-0.6,4c-2.6-0.7-4.7-1.1-6.4-1.3c-1.6-0.2-3.2-0.3-4.6-0.3c-3.2,0-6.1,0.6-9,1.9
			c-2.8,1.3-5.2,3.1-7.2,5.5c-2,2.4-3.3,5.1-4,8c-0.6,2.7-0.5,4.9,0.3,6.8c0.8,1.9,2.1,3.4,4,4.4c1.8,1,4.3,1.6,7.3,1.6
			c1.7,0,3.5-0.1,5.5-0.4C374.9,143.1,377.5,142.6,380.6,141.8L380.6,141.8z"/>
		<path class="st13" d="M419.5,104.8c3.7,0,7.2,0.5,10.5,1.5c3.2,1,5.9,2.6,8,4.8c2.1,2.2,3.5,4.8,4.1,7.6c0.6,2.9,0.5,6.2-0.3,9.9
			c-0.9,3.9-2.4,7.5-4.5,10.8c-2.2,3.3-4.8,6.1-8,8.4c-3.2,2.3-6.7,4-10.7,5c-3.9,1.1-7.9,1.6-11.9,1.6c-4,0-7.6-0.5-11-1.6
			c-3.4-1-6.2-2.7-8.3-5.1c-2.2-2.3-3.5-4.9-4-7.8c-0.5-2.9-0.3-6,0.4-9.5c1.1-5.1,3.3-9.6,6.6-13.5c3.2-3.9,7.4-6.9,12.6-9.1
			C408.2,105.9,413.7,104.8,419.5,104.8 M416.6,115.3c-2.7,0-5.3,0.7-7.8,2c-2.5,1.3-4.6,3.2-6.3,5.5c-1.7,2.4-2.8,4.9-3.4,7.6
			c-0.6,2.5-0.5,4.8,0.1,6.8c0.6,2.1,1.9,3.7,3.8,4.8c1.9,1.2,4.1,1.7,6.5,1.7c2.6,0,5.1-0.6,7.6-1.9c2.5-1.3,4.5-3.1,6.2-5.5
			c1.7-2.4,2.8-4.8,3.4-7.4c0.6-2.5,0.5-4.8,0-6.9c-0.6-2.1-1.8-3.8-3.5-4.9C421.3,115.9,419.1,115.3,416.6,115.3"/>
		<path class="st13" d="M436.1,153.6l2.4-7.1l7.6-24.6l4.7-16.2c4.3,0,7.7,0.1,10.2,0.1c2.1,0,5.2,0,9.4-0.1c-0.1,2-0.2,3.5-0.3,4.6
			c0,1,0,3.1,0.2,6.1c0.1,3,0.2,5.7,0.2,7.9c0,2.2-0.1,6-0.3,11.4c1.8-3.7,3.5-6.8,4.9-9.5c1.4-2.6,3.2-5.6,5.2-9
			c2-3.4,3.3-5.6,3.9-6.6c0.6-1,1.4-2.6,2.5-4.8c3.5,0,7,0.1,10.3,0.1c2.3,0,5.5,0,9.6-0.1c-2.2,7.9-4,14.7-5.4,20.3
			c-2.8,11.1-4.6,18.7-5.6,22.9c-0.2,0.9-0.5,2.4-1,4.7c-3.1,0-5.3-0.1-6.5-0.1c-1.8,0-4,0-6.7,0.1c0.7-2.1,2-7.1,4.1-15
			c2-7.9,3.3-13,3.8-15.2c0.2-1,0.5-2.3,0.8-4l-7.8,14.3l-11,19.9c-3,0-5.1-0.1-6.2-0.1c-1.4,0-3.7,0-6.7,0.1l-0.1-19.3l-0.3-10.3
			c0-0.4,0-0.9,0-1.5c0-0.6,0.1-1.6,0.1-3.1l-3.1,9.7l-5.6,19.9l-1.1,4.5c-3.2,0-5.3-0.1-6.2-0.1
			C441.2,153.5,439.1,153.5,436.1,153.6L436.1,153.6z"/>
		<path class="st13" d="M498.4,153.5l2.7-9l4.8-17.5l3.2-12.4c0.3-1.3,0.6-2.7,0.9-4c0.2-1,0.6-2.7,1.1-5c3.1,0.1,5.5,0.1,7.4,0.1
			c1.8,0,4.3-0.1,7.4-0.2c3.2-0.1,5.8-0.2,8-0.2c3.1,0,5.4,0.2,6.8,0.6c1.4,0.4,2.6,1,3.7,1.9c1,0.9,1.8,1.9,2.4,3
			c0.5,1.1,0.8,2.4,0.9,3.9c0.1,1.5-0.1,3-0.4,4.5c-0.7,3.1-2.1,6-4.2,8.6c-2.1,2.6-4.7,4.5-7.7,5.8c-3,1.3-6.3,1.9-9.7,1.9
			c-1.3,0-2.7-0.1-4.3-0.4c0-1.1,0-2.7,0-4.8c-0.1-2.1-0.1-3.7-0.2-4.7c1,0.2,2,0.3,3.1,0.3c2.3,0,4.2-0.6,5.6-1.7
			c1.4-1.1,2.3-2.5,2.6-4.1c0.2-0.8,0.2-1.5,0.1-2.1c-0.1-0.6-0.4-1.1-0.9-1.5c-0.5-0.4-1-0.6-1.7-0.8c-0.6-0.1-1.4-0.2-2.2-0.2
			c-0.8,0-1.7,0-2.6,0.1l-3,0.2c-1.3,4.5-2.6,9.5-4,15c-2.5,10.1-4,16.1-4.5,18.1l-1,4.6l-7-0.1
			C504.7,153.4,502.3,153.4,498.4,153.5L498.4,153.5z"/>
		<path class="st13" d="M552,105.6c3.6,0,6.2,0.1,7.7,0.1c1.9,0,4.4,0,7.5-0.1l-4.4,14.9c-0.9,2.8-1.6,5.5-2.3,7.9
			c-0.7,2.5-1.1,4.2-1.3,5.1c-0.4,1.8-0.6,3.3-0.6,4.5c0,1.2,0.2,2.2,0.7,3c0.5,0.8,1.3,1.5,2.4,1.9c1.1,0.4,2.3,0.6,3.6,0.6
			c1.1,0,2.2-0.2,3.3-0.5c0.8-0.2,1.6-0.6,2.3-1c0.6-0.4,1.2-0.9,1.7-1.5c0.6-0.7,1.3-1.5,1.9-2.5c0.6-0.9,1.1-2.2,1.7-3.7
			c0.6-1.5,1.6-5,3.2-10.5c1.3-4.6,2.5-8.9,3.5-12.7c1-3.7,1.5-5.6,1.6-5.6c3.5,0,6.3,0,8.3,0h7.1l-7.2,25c-0.1,0.5-0.2,0.9-0.3,1.2
			c-1.2,4.9-2.2,8.3-3.2,10.3c-1,2-2.2,3.7-3.7,5.2c-1.5,1.5-3.5,2.8-6,4c-2.5,1.2-5.3,2-8.2,2.5c-3,0.5-5.9,0.7-8.9,0.7
			c-2.6,0-5.1-0.2-7.5-0.6c-2.2-0.4-4.1-0.9-5.7-1.6c-1.6-0.7-3-1.6-4.2-2.5c-1-0.9-1.8-1.8-2.2-2.7c-0.5-0.9-0.7-2-0.8-3.3
			c-0.1-1.4,0-3,0.4-4.7c0.1-0.6,0.3-1.4,0.6-2.5c0.3-1.1,0.8-2.8,1.4-4.9l1.7-5.6c0.5-1.5,1.1-3.6,1.9-6.5L552,105.6L552,105.6z"/>
	</g>
	<linearGradient id="SVGID_13_" gradientUnits="userSpaceOnUse" x1="33.2909" y1="106.9882" x2="33.2909" y2="114.3528">
		<stop  offset="0" style="stop-color:#FFFFFF"/>
		<stop  offset="1" style="stop-color:#E30613"/>
	</linearGradient>
	<path class="st14" d="M14.6,114.4c0,0,1.1-3.9,1.6-7.4H52l-1.8,6.2L27,113.5L14.6,114.4z"/>
	<linearGradient id="SVGID_14_" gradientUnits="userSpaceOnUse" x1="113.2904" y1="106.9882" x2="113.2904" y2="114.3528">
		<stop  offset="0" style="stop-color:#FFFFFF"/>
		<stop  offset="1" style="stop-color:#E30613"/>
	</linearGradient>
	<path class="st15" d="M94.6,114.4c0,0,1.1-3.9,1.6-7.4H132l-1.8,6.2l-23.2,0.3L94.6,114.4z"/>
	<linearGradient id="SVGID_15_" gradientUnits="userSpaceOnUse" x1="63.6014" y1="106.9882" x2="63.6014" y2="114.3528">
		<stop  offset="0" style="stop-color:#FFFFFF"/>
		<stop  offset="1" style="stop-color:#E30613"/>
	</linearGradient>
	<path class="st16" d="M56,114.4c0,0,1.1-3.9,1.6-7.4h13.5l-1.8,6.2l-6.3,0.3L56,114.4z"/>
	<linearGradient id="SVGID_16_" gradientUnits="userSpaceOnUse" x1="200.6541" y1="106.9882" x2="200.6541" y2="114.3528">
		<stop  offset="0" style="stop-color:#FFFFFF"/>
		<stop  offset="1" style="stop-color:#E30613"/>
	</linearGradient>
	<path class="st17" d="M178.4,114.4c0,0,1.4-3.9,1.9-7.4h42.6l-2.1,6.2l-27.6,0.3L178.4,114.4z"/>
	<linearGradient id="SVGID_17_" gradientUnits="userSpaceOnUse" x1="156.9371" y1="105.794" x2="156.9371" y2="114.3528">
		<stop  offset="0" style="stop-color:#FFFFFF"/>
		<stop  offset="1" style="stop-color:#E30613"/>
	</linearGradient>
	<path class="st18" d="M139.2,114.4c0,0,12.2-12.4,35.5-7.4l0,0l-1.4,7.2l-19.4-0.7L139.2,114.4z"/>
	<linearGradient id="SVGID_18_" gradientUnits="userSpaceOnUse" x1="244.5786" y1="106.9882" x2="244.5786" y2="114.3528">
		<stop  offset="0" style="stop-color:#FFFFFF"/>
		<stop  offset="1" style="stop-color:#E30613"/>
	</linearGradient>
	<path class="st19" d="M264.3,113.2l-24.7,0.3l-14.8,0.8c0,0,1.4-3.9,1.9-7.4h30.4C257.2,107,263.4,108.1,264.3,113.2z"/>
	<path class="st13" d="M587,172.9c0,0.3-0.3,0.6-0.6,0.6H0.6c-0.3,0-0.6-0.3-0.6-0.6l0,0c0-0.3,0.3-0.6,0.6-0.6h585.9
		C586.8,172.4,587,172.6,587,172.9L587,172.9z"/>
</g>
</svg>
